G04 EAGLE Gerber RS-274X export*
G75*
%MOMM*%
%FSLAX34Y34*%
%LPD*%
%INSoldermask Top*%
%IPPOS*%
%AMOC8*
5,1,8,0,0,1.08239X$1,22.5*%
G01*
%ADD10R,1.703200X1.503200*%
%ADD11R,1.403200X0.503200*%
%ADD12P,1.803519X8X292.500000*%
%ADD13P,1.803519X8X112.500000*%
%ADD14R,1.503200X1.703200*%
%ADD15C,2.003200*%
%ADD16R,3.703200X1.903200*%
%ADD17C,1.703200*%
%ADD18R,1.903200X3.703200*%
%ADD19R,1.603200X1.203200*%
%ADD20R,2.403200X0.803200*%
%ADD21R,1.703200X0.803200*%
%ADD22C,0.705600*%
%ADD23C,3.530600*%


D10*
X363220Y344780D03*
X363220Y325780D03*
X533400Y56540D03*
X533400Y75540D03*
X601980Y184760D03*
X601980Y165760D03*
X657860Y117500D03*
X657860Y136500D03*
X711200Y112420D03*
X711200Y131420D03*
D11*
X610400Y139300D03*
X610400Y132800D03*
X610400Y126300D03*
X610400Y119800D03*
X568150Y119800D03*
X568150Y126300D03*
X568150Y132800D03*
X568150Y139300D03*
D12*
X43180Y243840D03*
X43180Y218440D03*
D13*
X454660Y132080D03*
X454660Y157480D03*
X43180Y281940D03*
X43180Y307340D03*
D10*
X276860Y219100D03*
X276860Y238100D03*
D14*
X460400Y358140D03*
X479400Y358140D03*
X470560Y193040D03*
X489560Y193040D03*
D10*
X668020Y325780D03*
X668020Y344780D03*
D14*
X611480Y254000D03*
X592480Y254000D03*
D15*
X340360Y932180D03*
X340360Y906780D03*
X340360Y779780D03*
X340360Y754380D03*
X340360Y881380D03*
X340360Y855980D03*
X340360Y805180D03*
X340360Y830580D03*
X340360Y728980D03*
X340360Y703580D03*
X340360Y678180D03*
X340360Y652780D03*
X340360Y627380D03*
X340360Y601980D03*
X340360Y576580D03*
X340360Y551180D03*
X340360Y525780D03*
X340360Y500380D03*
X340360Y474980D03*
X340360Y449580D03*
X518160Y449580D03*
X518160Y474980D03*
X518160Y500380D03*
X518160Y525780D03*
X518160Y551180D03*
X518160Y576580D03*
X518160Y601980D03*
X518160Y627380D03*
X518160Y652780D03*
X518160Y678180D03*
X518160Y703580D03*
X518160Y728980D03*
X518160Y754380D03*
X518160Y779780D03*
X518160Y805180D03*
X518160Y830580D03*
X518160Y855980D03*
X518160Y881380D03*
X518160Y906780D03*
X518160Y932180D03*
D16*
X329260Y932180D03*
X329260Y906780D03*
X329260Y881380D03*
X329260Y855980D03*
X329260Y830580D03*
X329260Y805180D03*
X329260Y779780D03*
X329260Y754380D03*
X329260Y728980D03*
X329260Y703580D03*
X329260Y678180D03*
X329260Y652780D03*
X329260Y627380D03*
X329260Y601980D03*
X329260Y576580D03*
X329260Y551180D03*
X329260Y525780D03*
X329260Y500380D03*
X329260Y474980D03*
X329260Y449580D03*
X529260Y449580D03*
X529260Y474980D03*
X529260Y500380D03*
X529260Y525780D03*
X529260Y551180D03*
X529260Y576580D03*
X529260Y601980D03*
X529260Y627380D03*
X529260Y652780D03*
X529260Y678180D03*
X529260Y703580D03*
X529260Y728980D03*
X529260Y754380D03*
X529260Y779780D03*
X529260Y805180D03*
X529260Y830580D03*
X529260Y855980D03*
X529260Y881380D03*
X529260Y906780D03*
X529260Y932180D03*
D15*
X402010Y930880D03*
X456510Y930880D03*
D17*
X405010Y900580D03*
X453510Y900580D03*
D15*
X403860Y451880D03*
X429260Y451880D03*
X454660Y451880D03*
D18*
X403860Y441630D03*
X429260Y441630D03*
X454660Y441630D03*
D19*
X56720Y167640D03*
X34720Y158140D03*
X34720Y177140D03*
D14*
X141580Y523240D03*
X122580Y523240D03*
X197460Y421640D03*
X178460Y421640D03*
D20*
X121320Y478790D03*
X173320Y478790D03*
X121320Y491490D03*
X121320Y466090D03*
X121320Y453390D03*
X173320Y491490D03*
X173320Y466090D03*
X173320Y453390D03*
D14*
X66700Y497840D03*
X85700Y497840D03*
X238100Y497840D03*
X219100Y497840D03*
D21*
X26060Y492100D03*
X26060Y473100D03*
X45060Y482600D03*
D14*
X66700Y436880D03*
X85700Y436880D03*
X85700Y467360D03*
X66700Y467360D03*
D22*
X218440Y462280D03*
X609600Y370840D03*
D23*
X698500Y63500D03*
X63500Y63500D03*
X63500Y889000D03*
X698500Y889000D03*
D22*
X716280Y81280D03*
X711200Y96520D03*
X574040Y589280D03*
X568960Y614680D03*
X289560Y741680D03*
X289560Y645160D03*
X269240Y787400D03*
X264160Y858520D03*
X604520Y751840D03*
X680720Y528320D03*
X477520Y218440D03*
X477520Y177800D03*
X502920Y294640D03*
X640080Y386080D03*
X121920Y386080D03*
X198120Y487680D03*
X248920Y731520D03*
X619760Y924560D03*
X279400Y833120D03*
X660400Y772160D03*
X157480Y568960D03*
X690880Y706120D03*
X167640Y294640D03*
X30480Y294640D03*
X640080Y121920D03*
X604520Y86360D03*
X685800Y121920D03*
X711200Y243840D03*
X675640Y91440D03*
X635000Y157480D03*
X558800Y228600D03*
X543560Y106680D03*
M02*
