G04 EAGLE Gerber RS-274X export*
G75*
%MOMM*%
%FSLAX34Y34*%
%LPD*%
%INBottom Copper*%
%IPPOS*%
%AMOC8*
5,1,8,0,0,1.08239X$1,22.5*%
G01*
%ADD10P,1.583577X8X292.500000*%
%ADD11P,1.583577X8X112.500000*%
%ADD12C,1.800000*%
%ADD13C,0.502400*%
%ADD14C,0.304800*%
%ADD15C,3.327400*%

G36*
X756946Y3560D02*
X756946Y3560D01*
X756972Y3558D01*
X757119Y3580D01*
X757266Y3597D01*
X757291Y3605D01*
X757317Y3609D01*
X757455Y3664D01*
X757594Y3714D01*
X757616Y3728D01*
X757641Y3738D01*
X757762Y3823D01*
X757887Y3903D01*
X757905Y3922D01*
X757927Y3937D01*
X758026Y4047D01*
X758129Y4154D01*
X758143Y4176D01*
X758160Y4196D01*
X758232Y4326D01*
X758308Y4453D01*
X758316Y4478D01*
X758329Y4501D01*
X758369Y4644D01*
X758414Y4785D01*
X758416Y4811D01*
X758424Y4836D01*
X758443Y5080D01*
X758443Y944880D01*
X758440Y944906D01*
X758442Y944932D01*
X758420Y945079D01*
X758403Y945226D01*
X758395Y945251D01*
X758391Y945277D01*
X758336Y945415D01*
X758286Y945554D01*
X758272Y945576D01*
X758262Y945601D01*
X758177Y945722D01*
X758097Y945847D01*
X758078Y945865D01*
X758063Y945887D01*
X757953Y945986D01*
X757846Y946089D01*
X757824Y946103D01*
X757804Y946120D01*
X757674Y946192D01*
X757547Y946268D01*
X757522Y946276D01*
X757499Y946289D01*
X757356Y946329D01*
X757215Y946374D01*
X757189Y946376D01*
X757164Y946384D01*
X756920Y946403D01*
X5080Y946403D01*
X5054Y946400D01*
X5028Y946402D01*
X4881Y946380D01*
X4734Y946363D01*
X4709Y946355D01*
X4683Y946351D01*
X4545Y946296D01*
X4406Y946246D01*
X4384Y946232D01*
X4359Y946222D01*
X4238Y946137D01*
X4113Y946057D01*
X4095Y946038D01*
X4073Y946023D01*
X3974Y945913D01*
X3871Y945806D01*
X3857Y945784D01*
X3840Y945764D01*
X3768Y945634D01*
X3692Y945507D01*
X3684Y945482D01*
X3671Y945459D01*
X3631Y945316D01*
X3586Y945175D01*
X3584Y945149D01*
X3576Y945124D01*
X3557Y944880D01*
X3557Y5080D01*
X3560Y5054D01*
X3558Y5028D01*
X3580Y4881D01*
X3597Y4734D01*
X3605Y4709D01*
X3609Y4683D01*
X3664Y4545D01*
X3714Y4406D01*
X3728Y4384D01*
X3738Y4359D01*
X3823Y4238D01*
X3903Y4113D01*
X3922Y4095D01*
X3937Y4073D01*
X4047Y3974D01*
X4154Y3871D01*
X4176Y3857D01*
X4196Y3840D01*
X4326Y3768D01*
X4453Y3692D01*
X4478Y3684D01*
X4501Y3671D01*
X4644Y3631D01*
X4785Y3586D01*
X4811Y3584D01*
X4836Y3576D01*
X5080Y3557D01*
X756920Y3557D01*
X756946Y3560D01*
G37*
%LPC*%
G36*
X247353Y727737D02*
X247353Y727737D01*
X245137Y729953D01*
X245137Y733087D01*
X247353Y735303D01*
X248119Y735303D01*
X248245Y735317D01*
X248371Y735324D01*
X248418Y735337D01*
X248466Y735343D01*
X248585Y735385D01*
X248706Y735420D01*
X248748Y735444D01*
X248794Y735460D01*
X248900Y735529D01*
X249010Y735590D01*
X249056Y735630D01*
X249087Y735649D01*
X249120Y735684D01*
X249197Y735749D01*
X301559Y788111D01*
X301559Y788112D01*
X303642Y790195D01*
X329512Y790195D01*
X329638Y790209D01*
X329764Y790216D01*
X329810Y790229D01*
X329858Y790235D01*
X329977Y790277D01*
X330099Y790312D01*
X330141Y790336D01*
X330187Y790352D01*
X330293Y790421D01*
X330403Y790482D01*
X330449Y790522D01*
X330479Y790541D01*
X330513Y790576D01*
X330589Y790641D01*
X332234Y792285D01*
X332234Y792286D01*
X334405Y794456D01*
X334421Y794477D01*
X334441Y794494D01*
X334529Y794613D01*
X334621Y794729D01*
X334632Y794753D01*
X334648Y794774D01*
X334707Y794910D01*
X334770Y795044D01*
X334776Y795070D01*
X334786Y795094D01*
X334812Y795240D01*
X334844Y795385D01*
X334843Y795411D01*
X334848Y795437D01*
X334840Y795586D01*
X334838Y795733D01*
X334831Y795759D01*
X334830Y795785D01*
X334789Y795928D01*
X334753Y796071D01*
X334741Y796095D01*
X334733Y796120D01*
X334661Y796250D01*
X334593Y796381D01*
X334576Y796401D01*
X334563Y796424D01*
X334405Y796610D01*
X331653Y799362D01*
X330089Y803137D01*
X330089Y807223D01*
X331653Y810998D01*
X334542Y813887D01*
X338317Y815451D01*
X342403Y815451D01*
X346178Y813887D01*
X349067Y810998D01*
X350631Y807223D01*
X350631Y803137D01*
X349067Y799362D01*
X346674Y796969D01*
X346612Y796891D01*
X346542Y796818D01*
X346504Y796754D01*
X346457Y796696D01*
X346415Y796605D01*
X346363Y796519D01*
X346340Y796448D01*
X346309Y796381D01*
X346287Y796283D01*
X346257Y796187D01*
X346251Y796113D01*
X346235Y796040D01*
X346237Y795940D01*
X346229Y795840D01*
X346240Y795766D01*
X346241Y795692D01*
X346266Y795595D01*
X346281Y795495D01*
X346308Y795426D01*
X346326Y795354D01*
X346372Y795265D01*
X346409Y795171D01*
X346452Y795110D01*
X346486Y795044D01*
X346551Y794968D01*
X346608Y794885D01*
X346663Y794835D01*
X346712Y794779D01*
X346792Y794719D01*
X346867Y794652D01*
X346932Y794616D01*
X346992Y794571D01*
X347084Y794532D01*
X347172Y794483D01*
X347244Y794463D01*
X347312Y794433D01*
X347411Y794416D01*
X347507Y794388D01*
X347607Y794380D01*
X347655Y794372D01*
X347691Y794374D01*
X347751Y794369D01*
X510769Y794369D01*
X510869Y794380D01*
X510969Y794382D01*
X511041Y794400D01*
X511115Y794409D01*
X511209Y794442D01*
X511307Y794467D01*
X511373Y794501D01*
X511443Y794526D01*
X511528Y794581D01*
X511617Y794627D01*
X511673Y794675D01*
X511736Y794715D01*
X511806Y794787D01*
X511882Y794852D01*
X511926Y794912D01*
X511978Y794966D01*
X512030Y795052D01*
X512089Y795133D01*
X512119Y795201D01*
X512157Y795265D01*
X512188Y795361D01*
X512227Y795453D01*
X512241Y795526D01*
X512263Y795597D01*
X512271Y795697D01*
X512289Y795796D01*
X512285Y795870D01*
X512291Y795944D01*
X512276Y796044D01*
X512271Y796144D01*
X512251Y796215D01*
X512239Y796289D01*
X512202Y796382D01*
X512175Y796479D01*
X512138Y796544D01*
X512111Y796613D01*
X512054Y796695D01*
X512004Y796783D01*
X511939Y796859D01*
X511912Y796899D01*
X511885Y796923D01*
X511846Y796969D01*
X509453Y799362D01*
X507889Y803137D01*
X507889Y807223D01*
X509453Y810998D01*
X512342Y813887D01*
X516117Y815451D01*
X520203Y815451D01*
X523978Y813887D01*
X526867Y810998D01*
X528431Y807223D01*
X528431Y803137D01*
X526867Y799362D01*
X524474Y796969D01*
X524412Y796891D01*
X524342Y796818D01*
X524304Y796754D01*
X524257Y796696D01*
X524215Y796605D01*
X524163Y796519D01*
X524140Y796448D01*
X524109Y796381D01*
X524087Y796283D01*
X524057Y796187D01*
X524051Y796113D01*
X524035Y796040D01*
X524037Y795940D01*
X524029Y795840D01*
X524040Y795766D01*
X524041Y795692D01*
X524066Y795595D01*
X524081Y795495D01*
X524108Y795426D01*
X524126Y795354D01*
X524172Y795265D01*
X524209Y795171D01*
X524252Y795110D01*
X524286Y795044D01*
X524351Y794968D01*
X524408Y794885D01*
X524463Y794835D01*
X524512Y794779D01*
X524592Y794719D01*
X524667Y794652D01*
X524732Y794616D01*
X524792Y794571D01*
X524884Y794532D01*
X524972Y794483D01*
X525044Y794463D01*
X525112Y794433D01*
X525211Y794416D01*
X525307Y794388D01*
X525407Y794380D01*
X525455Y794372D01*
X525491Y794374D01*
X525551Y794369D01*
X586264Y794369D01*
X620471Y760161D01*
X620570Y760082D01*
X620664Y759998D01*
X620707Y759974D01*
X620744Y759944D01*
X620859Y759890D01*
X620969Y759829D01*
X621016Y759816D01*
X621060Y759795D01*
X621183Y759769D01*
X621305Y759734D01*
X621366Y759729D01*
X621400Y759722D01*
X621448Y759723D01*
X621549Y759715D01*
X658611Y759715D01*
X658737Y759729D01*
X658863Y759736D01*
X658910Y759749D01*
X658958Y759755D01*
X659077Y759797D01*
X659198Y759832D01*
X659240Y759856D01*
X659286Y759872D01*
X659392Y759941D01*
X659502Y760002D01*
X659549Y760042D01*
X659579Y760061D01*
X659612Y760096D01*
X659689Y760161D01*
X677479Y777951D01*
X677558Y778050D01*
X677642Y778144D01*
X677666Y778187D01*
X677696Y778224D01*
X677750Y778339D01*
X677811Y778449D01*
X677824Y778496D01*
X677845Y778540D01*
X677871Y778663D01*
X677906Y778785D01*
X677911Y778846D01*
X677918Y778880D01*
X677917Y778928D01*
X677925Y779029D01*
X677925Y861811D01*
X677911Y861937D01*
X677904Y862063D01*
X677891Y862110D01*
X677885Y862158D01*
X677843Y862277D01*
X677808Y862398D01*
X677784Y862440D01*
X677768Y862486D01*
X677699Y862592D01*
X677638Y862702D01*
X677598Y862749D01*
X677579Y862779D01*
X677544Y862812D01*
X677479Y862889D01*
X620037Y920331D01*
X619938Y920410D01*
X619844Y920494D01*
X619801Y920518D01*
X619764Y920548D01*
X619649Y920602D01*
X619539Y920663D01*
X619492Y920676D01*
X619448Y920697D01*
X619325Y920723D01*
X619203Y920758D01*
X619142Y920763D01*
X619108Y920770D01*
X619060Y920769D01*
X618959Y920777D01*
X618193Y920777D01*
X615977Y922993D01*
X615977Y926127D01*
X618193Y928343D01*
X621327Y928343D01*
X623543Y926127D01*
X623543Y925361D01*
X623557Y925235D01*
X623564Y925109D01*
X623577Y925062D01*
X623583Y925014D01*
X623625Y924895D01*
X623660Y924774D01*
X623684Y924732D01*
X623700Y924686D01*
X623769Y924580D01*
X623830Y924470D01*
X623870Y924423D01*
X623889Y924393D01*
X623924Y924360D01*
X623989Y924283D01*
X683515Y864758D01*
X683515Y776082D01*
X661558Y754125D01*
X618602Y754125D01*
X584395Y788333D01*
X584296Y788412D01*
X584202Y788496D01*
X584159Y788520D01*
X584122Y788550D01*
X584007Y788604D01*
X583897Y788665D01*
X583850Y788678D01*
X583806Y788699D01*
X583683Y788725D01*
X583561Y788760D01*
X583500Y788765D01*
X583466Y788772D01*
X583418Y788771D01*
X583317Y788779D01*
X527363Y788779D01*
X527263Y788768D01*
X527163Y788766D01*
X527091Y788748D01*
X527017Y788739D01*
X526922Y788706D01*
X526825Y788681D01*
X526759Y788647D01*
X526689Y788622D01*
X526604Y788567D01*
X526515Y788521D01*
X526459Y788473D01*
X526396Y788433D01*
X526326Y788361D01*
X526250Y788296D01*
X526206Y788236D01*
X526154Y788182D01*
X526102Y788096D01*
X526043Y788015D01*
X526013Y787947D01*
X525975Y787883D01*
X525944Y787788D01*
X525905Y787695D01*
X525891Y787622D01*
X525869Y787551D01*
X525861Y787451D01*
X525843Y787352D01*
X525847Y787278D01*
X525841Y787204D01*
X525856Y787105D01*
X525861Y787004D01*
X525881Y786933D01*
X525893Y786859D01*
X525930Y786766D01*
X525957Y786669D01*
X525994Y786604D01*
X526021Y786535D01*
X526079Y786453D01*
X526128Y786365D01*
X526193Y786289D01*
X526220Y786249D01*
X526247Y786225D01*
X526286Y786179D01*
X526867Y785598D01*
X528431Y781823D01*
X528431Y777737D01*
X526867Y773962D01*
X523978Y771073D01*
X520203Y769509D01*
X516117Y769509D01*
X512342Y771073D01*
X509453Y773962D01*
X507889Y777737D01*
X507889Y781823D01*
X509453Y785598D01*
X510034Y786179D01*
X510096Y786258D01*
X510166Y786330D01*
X510204Y786394D01*
X510251Y786452D01*
X510294Y786543D01*
X510345Y786629D01*
X510368Y786700D01*
X510399Y786767D01*
X510421Y786865D01*
X510451Y786961D01*
X510457Y787035D01*
X510473Y787108D01*
X510471Y787208D01*
X510479Y787308D01*
X510468Y787382D01*
X510467Y787456D01*
X510442Y787553D01*
X510427Y787653D01*
X510400Y787722D01*
X510382Y787794D01*
X510336Y787883D01*
X510299Y787977D01*
X510256Y788038D01*
X510222Y788104D01*
X510157Y788181D01*
X510100Y788263D01*
X510045Y788313D01*
X509996Y788369D01*
X509916Y788429D01*
X509841Y788496D01*
X509776Y788532D01*
X509716Y788577D01*
X509624Y788616D01*
X509536Y788665D01*
X509464Y788685D01*
X509396Y788715D01*
X509297Y788732D01*
X509201Y788760D01*
X509101Y788768D01*
X509053Y788776D01*
X509017Y788774D01*
X508957Y788779D01*
X349563Y788779D01*
X349463Y788768D01*
X349363Y788766D01*
X349291Y788748D01*
X349217Y788739D01*
X349122Y788706D01*
X349025Y788681D01*
X348959Y788647D01*
X348889Y788622D01*
X348804Y788567D01*
X348715Y788521D01*
X348659Y788473D01*
X348596Y788433D01*
X348526Y788361D01*
X348450Y788296D01*
X348406Y788236D01*
X348354Y788182D01*
X348302Y788096D01*
X348243Y788015D01*
X348213Y787947D01*
X348175Y787883D01*
X348144Y787788D01*
X348105Y787695D01*
X348091Y787622D01*
X348069Y787551D01*
X348061Y787451D01*
X348043Y787352D01*
X348047Y787278D01*
X348041Y787204D01*
X348056Y787105D01*
X348061Y787004D01*
X348081Y786933D01*
X348093Y786859D01*
X348130Y786766D01*
X348157Y786669D01*
X348194Y786604D01*
X348221Y786535D01*
X348279Y786453D01*
X348328Y786365D01*
X348393Y786289D01*
X348420Y786249D01*
X348447Y786225D01*
X348486Y786179D01*
X349067Y785598D01*
X350631Y781823D01*
X350631Y777737D01*
X349067Y773962D01*
X346178Y771073D01*
X342403Y769509D01*
X338317Y769509D01*
X334542Y771073D01*
X331653Y773962D01*
X330089Y777737D01*
X330089Y781823D01*
X330369Y782499D01*
X330411Y782644D01*
X330456Y782787D01*
X330458Y782811D01*
X330465Y782834D01*
X330472Y782984D01*
X330484Y783134D01*
X330481Y783158D01*
X330482Y783182D01*
X330455Y783330D01*
X330433Y783479D01*
X330424Y783501D01*
X330419Y783525D01*
X330360Y783663D01*
X330304Y783803D01*
X330290Y783823D01*
X330281Y783845D01*
X330191Y783966D01*
X330105Y784089D01*
X330087Y784105D01*
X330073Y784125D01*
X329958Y784222D01*
X329846Y784322D01*
X329825Y784334D01*
X329807Y784350D01*
X329673Y784418D01*
X329541Y784491D01*
X329518Y784497D01*
X329496Y784508D01*
X329351Y784545D01*
X329206Y784586D01*
X329177Y784588D01*
X329158Y784593D01*
X329111Y784593D01*
X328962Y784605D01*
X306589Y784605D01*
X306463Y784591D01*
X306337Y784584D01*
X306290Y784571D01*
X306242Y784565D01*
X306123Y784523D01*
X306002Y784488D01*
X305960Y784464D01*
X305914Y784448D01*
X305808Y784379D01*
X305698Y784318D01*
X305651Y784278D01*
X305621Y784259D01*
X305588Y784224D01*
X305511Y784159D01*
X253149Y731797D01*
X253070Y731698D01*
X252986Y731604D01*
X252962Y731561D01*
X252932Y731524D01*
X252878Y731409D01*
X252817Y731299D01*
X252804Y731252D01*
X252783Y731208D01*
X252757Y731085D01*
X252722Y730963D01*
X252717Y730902D01*
X252710Y730868D01*
X252711Y730820D01*
X252703Y730719D01*
X252703Y729953D01*
X250487Y727737D01*
X247353Y727737D01*
G37*
%LPD*%
%LPC*%
G36*
X349362Y383285D02*
X349362Y383285D01*
X166929Y565719D01*
X166830Y565798D01*
X166736Y565882D01*
X166693Y565906D01*
X166656Y565936D01*
X166541Y565990D01*
X166431Y566051D01*
X166384Y566064D01*
X166340Y566085D01*
X166217Y566111D01*
X166095Y566146D01*
X166034Y566151D01*
X166000Y566158D01*
X165952Y566157D01*
X165851Y566165D01*
X160666Y566165D01*
X160540Y566151D01*
X160414Y566144D01*
X160368Y566131D01*
X160320Y566125D01*
X160201Y566083D01*
X160079Y566048D01*
X160037Y566024D01*
X159992Y566008D01*
X159885Y565939D01*
X159775Y565878D01*
X159729Y565838D01*
X159699Y565819D01*
X159665Y565784D01*
X159589Y565719D01*
X159047Y565177D01*
X155913Y565177D01*
X153697Y567393D01*
X153697Y570527D01*
X155913Y572743D01*
X159047Y572743D01*
X159589Y572201D01*
X159688Y572122D01*
X159782Y572038D01*
X159824Y572014D01*
X159862Y571984D01*
X159976Y571930D01*
X160087Y571869D01*
X160133Y571856D01*
X160177Y571835D01*
X160300Y571809D01*
X160422Y571774D01*
X160483Y571769D01*
X160518Y571762D01*
X160566Y571763D01*
X160666Y571755D01*
X168798Y571755D01*
X351231Y389321D01*
X351330Y389242D01*
X351424Y389158D01*
X351467Y389134D01*
X351504Y389104D01*
X351619Y389050D01*
X351729Y388989D01*
X351776Y388976D01*
X351820Y388955D01*
X351943Y388929D01*
X352065Y388894D01*
X352126Y388889D01*
X352160Y388882D01*
X352208Y388883D01*
X352309Y388875D01*
X572251Y388875D01*
X572377Y388889D01*
X572503Y388896D01*
X572550Y388909D01*
X572598Y388915D01*
X572717Y388957D01*
X572838Y388992D01*
X572880Y389016D01*
X572926Y389032D01*
X573032Y389101D01*
X573142Y389162D01*
X573189Y389202D01*
X573219Y389221D01*
X573252Y389256D01*
X573329Y389321D01*
X687639Y503631D01*
X687702Y503711D01*
X687769Y503780D01*
X687782Y503802D01*
X687802Y503824D01*
X687826Y503867D01*
X687856Y503904D01*
X687903Y504003D01*
X687948Y504079D01*
X687954Y504099D01*
X687971Y504129D01*
X687984Y504176D01*
X688005Y504220D01*
X688029Y504334D01*
X688054Y504411D01*
X688055Y504428D01*
X688066Y504465D01*
X688071Y504526D01*
X688078Y504560D01*
X688077Y504608D01*
X688085Y504709D01*
X688085Y702934D01*
X688071Y703060D01*
X688064Y703186D01*
X688051Y703232D01*
X688045Y703280D01*
X688003Y703399D01*
X687968Y703521D01*
X687944Y703563D01*
X687928Y703608D01*
X687859Y703715D01*
X687798Y703825D01*
X687758Y703871D01*
X687739Y703901D01*
X687704Y703935D01*
X687639Y704011D01*
X687097Y704553D01*
X687097Y707687D01*
X689313Y709903D01*
X692447Y709903D01*
X694663Y707687D01*
X694663Y704553D01*
X694121Y704011D01*
X694042Y703912D01*
X693958Y703818D01*
X693934Y703776D01*
X693904Y703738D01*
X693850Y703624D01*
X693789Y703513D01*
X693776Y703467D01*
X693755Y703423D01*
X693729Y703300D01*
X693694Y703178D01*
X693689Y703117D01*
X693682Y703082D01*
X693683Y703034D01*
X693675Y702934D01*
X693675Y501762D01*
X575198Y383285D01*
X349362Y383285D01*
G37*
%LPD*%
%LPC*%
G36*
X658833Y768377D02*
X658833Y768377D01*
X656617Y770593D01*
X656617Y771359D01*
X656603Y771485D01*
X656596Y771611D01*
X656583Y771658D01*
X656577Y771706D01*
X656535Y771825D01*
X656500Y771946D01*
X656476Y771988D01*
X656460Y772034D01*
X656391Y772140D01*
X656330Y772250D01*
X656290Y772297D01*
X656271Y772327D01*
X656236Y772360D01*
X656171Y772437D01*
X589475Y839133D01*
X589376Y839212D01*
X589282Y839296D01*
X589239Y839320D01*
X589202Y839350D01*
X589087Y839404D01*
X588977Y839465D01*
X588930Y839478D01*
X588886Y839499D01*
X588763Y839525D01*
X588641Y839560D01*
X588580Y839565D01*
X588546Y839572D01*
X588498Y839571D01*
X588397Y839579D01*
X527363Y839579D01*
X527263Y839568D01*
X527163Y839566D01*
X527091Y839548D01*
X527017Y839539D01*
X526922Y839506D01*
X526825Y839481D01*
X526759Y839447D01*
X526689Y839422D01*
X526604Y839367D01*
X526515Y839321D01*
X526459Y839273D01*
X526396Y839233D01*
X526326Y839161D01*
X526250Y839096D01*
X526206Y839036D01*
X526154Y838982D01*
X526102Y838896D01*
X526043Y838815D01*
X526013Y838747D01*
X525975Y838683D01*
X525944Y838588D01*
X525905Y838495D01*
X525891Y838422D01*
X525869Y838351D01*
X525861Y838251D01*
X525843Y838152D01*
X525847Y838078D01*
X525841Y838004D01*
X525856Y837905D01*
X525861Y837804D01*
X525881Y837733D01*
X525893Y837659D01*
X525930Y837566D01*
X525957Y837469D01*
X525994Y837404D01*
X526021Y837335D01*
X526079Y837253D01*
X526128Y837165D01*
X526193Y837089D01*
X526220Y837049D01*
X526247Y837025D01*
X526286Y836979D01*
X526867Y836398D01*
X528431Y832623D01*
X528431Y828537D01*
X526867Y824762D01*
X523978Y821873D01*
X520203Y820309D01*
X516117Y820309D01*
X512342Y821873D01*
X509453Y824762D01*
X507889Y828537D01*
X507889Y832623D01*
X509453Y836398D01*
X510034Y836979D01*
X510096Y837058D01*
X510166Y837130D01*
X510204Y837194D01*
X510251Y837252D01*
X510294Y837343D01*
X510345Y837429D01*
X510368Y837500D01*
X510399Y837567D01*
X510421Y837665D01*
X510451Y837761D01*
X510457Y837835D01*
X510473Y837908D01*
X510471Y838008D01*
X510479Y838108D01*
X510468Y838182D01*
X510467Y838256D01*
X510442Y838353D01*
X510427Y838453D01*
X510400Y838522D01*
X510382Y838594D01*
X510336Y838683D01*
X510299Y838777D01*
X510256Y838838D01*
X510222Y838904D01*
X510157Y838981D01*
X510100Y839063D01*
X510045Y839113D01*
X509996Y839169D01*
X509916Y839229D01*
X509841Y839296D01*
X509776Y839332D01*
X509716Y839377D01*
X509624Y839416D01*
X509536Y839465D01*
X509464Y839485D01*
X509396Y839515D01*
X509297Y839532D01*
X509201Y839560D01*
X509101Y839568D01*
X509053Y839576D01*
X509017Y839574D01*
X508957Y839579D01*
X349563Y839579D01*
X349463Y839568D01*
X349363Y839566D01*
X349291Y839548D01*
X349217Y839539D01*
X349122Y839506D01*
X349025Y839481D01*
X348959Y839447D01*
X348889Y839422D01*
X348804Y839367D01*
X348715Y839321D01*
X348659Y839273D01*
X348596Y839233D01*
X348526Y839161D01*
X348450Y839096D01*
X348406Y839036D01*
X348354Y838982D01*
X348302Y838896D01*
X348243Y838815D01*
X348213Y838747D01*
X348175Y838683D01*
X348144Y838588D01*
X348105Y838495D01*
X348091Y838422D01*
X348069Y838351D01*
X348061Y838251D01*
X348043Y838152D01*
X348047Y838078D01*
X348041Y838004D01*
X348056Y837905D01*
X348061Y837804D01*
X348081Y837733D01*
X348093Y837659D01*
X348130Y837566D01*
X348157Y837469D01*
X348194Y837404D01*
X348221Y837335D01*
X348279Y837253D01*
X348328Y837165D01*
X348393Y837089D01*
X348420Y837049D01*
X348447Y837025D01*
X348486Y836979D01*
X349067Y836398D01*
X350631Y832623D01*
X350631Y828537D01*
X349067Y824762D01*
X346178Y821873D01*
X342403Y820309D01*
X338317Y820309D01*
X334542Y821873D01*
X331653Y824762D01*
X330089Y828537D01*
X330089Y829359D01*
X330078Y829458D01*
X330076Y829559D01*
X330058Y829631D01*
X330049Y829705D01*
X330016Y829800D01*
X329991Y829897D01*
X329957Y829963D01*
X329932Y830033D01*
X329877Y830118D01*
X329831Y830207D01*
X329783Y830263D01*
X329743Y830326D01*
X329671Y830396D01*
X329606Y830472D01*
X329546Y830516D01*
X329492Y830568D01*
X329406Y830620D01*
X329325Y830679D01*
X329257Y830709D01*
X329193Y830747D01*
X329098Y830777D01*
X329005Y830817D01*
X328932Y830830D01*
X328861Y830853D01*
X328761Y830861D01*
X328662Y830879D01*
X328588Y830875D01*
X328514Y830881D01*
X328415Y830866D01*
X328314Y830861D01*
X328243Y830840D01*
X328169Y830829D01*
X328076Y830792D01*
X327979Y830764D01*
X327914Y830728D01*
X327845Y830701D01*
X327763Y830643D01*
X327675Y830594D01*
X327599Y830529D01*
X327559Y830502D01*
X327535Y830475D01*
X327489Y830436D01*
X327378Y830325D01*
X282586Y830325D01*
X282460Y830311D01*
X282334Y830304D01*
X282288Y830291D01*
X282240Y830285D01*
X282121Y830243D01*
X281999Y830208D01*
X281957Y830184D01*
X281912Y830168D01*
X281805Y830099D01*
X281695Y830038D01*
X281649Y829998D01*
X281619Y829979D01*
X281585Y829944D01*
X281509Y829879D01*
X280967Y829337D01*
X277833Y829337D01*
X275617Y831553D01*
X275617Y834687D01*
X277833Y836903D01*
X280967Y836903D01*
X281509Y836361D01*
X281608Y836282D01*
X281702Y836198D01*
X281744Y836174D01*
X281782Y836144D01*
X281896Y836090D01*
X282007Y836029D01*
X282053Y836016D01*
X282097Y835995D01*
X282220Y835969D01*
X282342Y835934D01*
X282403Y835929D01*
X282438Y835922D01*
X282486Y835923D01*
X282586Y835915D01*
X324432Y835915D01*
X324558Y835929D01*
X324684Y835936D01*
X324730Y835949D01*
X324778Y835955D01*
X324897Y835997D01*
X325019Y836032D01*
X325061Y836056D01*
X325106Y836072D01*
X325213Y836141D01*
X325323Y836202D01*
X325369Y836242D01*
X325399Y836261D01*
X325433Y836296D01*
X325509Y836361D01*
X332234Y843085D01*
X334405Y845256D01*
X334421Y845277D01*
X334441Y845294D01*
X334529Y845413D01*
X334621Y845529D01*
X334632Y845553D01*
X334648Y845574D01*
X334707Y845710D01*
X334770Y845844D01*
X334776Y845870D01*
X334786Y845894D01*
X334812Y846040D01*
X334844Y846185D01*
X334843Y846211D01*
X334848Y846237D01*
X334840Y846386D01*
X334838Y846533D01*
X334831Y846559D01*
X334830Y846585D01*
X334789Y846728D01*
X334753Y846871D01*
X334741Y846895D01*
X334733Y846920D01*
X334661Y847050D01*
X334593Y847181D01*
X334576Y847201D01*
X334563Y847224D01*
X334405Y847410D01*
X331653Y850162D01*
X330089Y853937D01*
X330089Y858023D01*
X331653Y861798D01*
X334542Y864687D01*
X338317Y866251D01*
X342403Y866251D01*
X346178Y864687D01*
X349067Y861798D01*
X350631Y858023D01*
X350631Y853937D01*
X349067Y850162D01*
X346674Y847769D01*
X346612Y847691D01*
X346542Y847618D01*
X346504Y847554D01*
X346457Y847496D01*
X346415Y847405D01*
X346363Y847319D01*
X346340Y847248D01*
X346309Y847181D01*
X346287Y847083D01*
X346257Y846987D01*
X346251Y846913D01*
X346235Y846840D01*
X346237Y846740D01*
X346229Y846640D01*
X346240Y846566D01*
X346241Y846492D01*
X346266Y846395D01*
X346281Y846295D01*
X346308Y846226D01*
X346326Y846154D01*
X346372Y846065D01*
X346409Y845971D01*
X346452Y845910D01*
X346486Y845844D01*
X346551Y845768D01*
X346608Y845685D01*
X346663Y845635D01*
X346712Y845579D01*
X346792Y845519D01*
X346867Y845452D01*
X346932Y845416D01*
X346992Y845371D01*
X347084Y845332D01*
X347172Y845283D01*
X347244Y845263D01*
X347312Y845233D01*
X347411Y845216D01*
X347507Y845188D01*
X347607Y845180D01*
X347655Y845172D01*
X347691Y845174D01*
X347751Y845169D01*
X510769Y845169D01*
X510869Y845180D01*
X510969Y845182D01*
X511041Y845200D01*
X511115Y845209D01*
X511209Y845242D01*
X511307Y845267D01*
X511373Y845301D01*
X511443Y845326D01*
X511528Y845381D01*
X511617Y845427D01*
X511673Y845475D01*
X511736Y845515D01*
X511806Y845587D01*
X511882Y845652D01*
X511926Y845712D01*
X511978Y845766D01*
X512030Y845852D01*
X512089Y845933D01*
X512119Y846001D01*
X512157Y846065D01*
X512188Y846161D01*
X512227Y846253D01*
X512241Y846326D01*
X512263Y846397D01*
X512271Y846497D01*
X512289Y846596D01*
X512285Y846670D01*
X512291Y846744D01*
X512276Y846844D01*
X512271Y846944D01*
X512251Y847015D01*
X512239Y847089D01*
X512202Y847182D01*
X512175Y847279D01*
X512138Y847344D01*
X512111Y847413D01*
X512054Y847495D01*
X512004Y847583D01*
X511939Y847659D01*
X511912Y847699D01*
X511885Y847723D01*
X511846Y847769D01*
X509453Y850162D01*
X507889Y853937D01*
X507889Y858023D01*
X509453Y861798D01*
X512342Y864687D01*
X516117Y866251D01*
X520203Y866251D01*
X523978Y864687D01*
X526867Y861798D01*
X528431Y858023D01*
X528431Y853937D01*
X526867Y850162D01*
X524474Y847769D01*
X524412Y847691D01*
X524342Y847618D01*
X524304Y847554D01*
X524257Y847496D01*
X524215Y847405D01*
X524163Y847319D01*
X524140Y847248D01*
X524109Y847181D01*
X524087Y847083D01*
X524057Y846987D01*
X524051Y846913D01*
X524035Y846840D01*
X524037Y846740D01*
X524029Y846640D01*
X524040Y846566D01*
X524041Y846492D01*
X524066Y846395D01*
X524081Y846295D01*
X524108Y846226D01*
X524126Y846154D01*
X524172Y846065D01*
X524209Y845971D01*
X524252Y845910D01*
X524286Y845844D01*
X524351Y845768D01*
X524408Y845685D01*
X524463Y845635D01*
X524512Y845579D01*
X524592Y845519D01*
X524667Y845452D01*
X524732Y845416D01*
X524792Y845371D01*
X524884Y845332D01*
X524972Y845283D01*
X525044Y845263D01*
X525112Y845233D01*
X525211Y845216D01*
X525307Y845188D01*
X525407Y845180D01*
X525455Y845172D01*
X525491Y845174D01*
X525551Y845169D01*
X591344Y845169D01*
X660123Y776389D01*
X660222Y776310D01*
X660316Y776226D01*
X660359Y776202D01*
X660396Y776172D01*
X660511Y776118D01*
X660621Y776057D01*
X660668Y776044D01*
X660712Y776023D01*
X660835Y775997D01*
X660957Y775962D01*
X661018Y775957D01*
X661052Y775950D01*
X661100Y775951D01*
X661201Y775943D01*
X661967Y775943D01*
X664183Y773727D01*
X664183Y770593D01*
X661967Y768377D01*
X658833Y768377D01*
G37*
%LPD*%
%LPC*%
G36*
X608033Y367057D02*
X608033Y367057D01*
X607491Y367599D01*
X607392Y367678D01*
X607298Y367762D01*
X607256Y367786D01*
X607218Y367816D01*
X607104Y367870D01*
X606993Y367931D01*
X606947Y367944D01*
X606903Y367965D01*
X606780Y367991D01*
X606658Y368026D01*
X606597Y368031D01*
X606562Y368038D01*
X606514Y368037D01*
X606414Y368045D01*
X344282Y368045D01*
X253289Y459039D01*
X253190Y459118D01*
X253096Y459202D01*
X253053Y459226D01*
X253016Y459256D01*
X252901Y459310D01*
X252791Y459371D01*
X252744Y459384D01*
X252700Y459405D01*
X252577Y459431D01*
X252455Y459466D01*
X252394Y459471D01*
X252360Y459478D01*
X252312Y459477D01*
X252211Y459485D01*
X221626Y459485D01*
X221500Y459471D01*
X221374Y459464D01*
X221328Y459451D01*
X221280Y459445D01*
X221161Y459403D01*
X221039Y459368D01*
X220997Y459344D01*
X220952Y459328D01*
X220845Y459259D01*
X220735Y459198D01*
X220689Y459158D01*
X220659Y459139D01*
X220625Y459104D01*
X220549Y459039D01*
X220007Y458497D01*
X216873Y458497D01*
X214657Y460713D01*
X214657Y463847D01*
X216873Y466063D01*
X220007Y466063D01*
X220549Y465521D01*
X220648Y465442D01*
X220742Y465358D01*
X220784Y465334D01*
X220822Y465304D01*
X220936Y465250D01*
X221047Y465189D01*
X221093Y465176D01*
X221137Y465155D01*
X221260Y465129D01*
X221382Y465094D01*
X221443Y465089D01*
X221478Y465082D01*
X221526Y465083D01*
X221626Y465075D01*
X255158Y465075D01*
X346151Y374081D01*
X346250Y374002D01*
X346344Y373918D01*
X346387Y373894D01*
X346424Y373864D01*
X346539Y373810D01*
X346649Y373749D01*
X346696Y373736D01*
X346740Y373715D01*
X346863Y373689D01*
X346985Y373654D01*
X347046Y373649D01*
X347080Y373642D01*
X347128Y373643D01*
X347229Y373635D01*
X606414Y373635D01*
X606540Y373649D01*
X606666Y373656D01*
X606712Y373669D01*
X606760Y373675D01*
X606879Y373717D01*
X607001Y373752D01*
X607043Y373776D01*
X607088Y373792D01*
X607195Y373861D01*
X607305Y373922D01*
X607351Y373962D01*
X607381Y373981D01*
X607415Y374016D01*
X607491Y374081D01*
X608033Y374623D01*
X611167Y374623D01*
X613383Y372407D01*
X613383Y369273D01*
X611167Y367057D01*
X608033Y367057D01*
G37*
%LPD*%
%LPC*%
G36*
X39624Y273354D02*
X39624Y273354D01*
X34594Y278384D01*
X34594Y285496D01*
X38343Y289245D01*
X38405Y289323D01*
X38475Y289396D01*
X38513Y289460D01*
X38559Y289518D01*
X38602Y289609D01*
X38654Y289695D01*
X38676Y289766D01*
X38708Y289833D01*
X38729Y289931D01*
X38760Y290027D01*
X38766Y290101D01*
X38782Y290174D01*
X38780Y290274D01*
X38788Y290374D01*
X38777Y290448D01*
X38776Y290522D01*
X38751Y290619D01*
X38736Y290719D01*
X38709Y290788D01*
X38691Y290860D01*
X38644Y290950D01*
X38607Y291043D01*
X38565Y291104D01*
X38531Y291170D01*
X38466Y291247D01*
X38409Y291329D01*
X38353Y291379D01*
X38305Y291435D01*
X38224Y291495D01*
X38150Y291562D01*
X38085Y291598D01*
X38025Y291643D01*
X37933Y291682D01*
X37845Y291731D01*
X37773Y291751D01*
X37705Y291781D01*
X37606Y291798D01*
X37509Y291826D01*
X37409Y291834D01*
X37362Y291842D01*
X37326Y291840D01*
X37266Y291845D01*
X33666Y291845D01*
X33540Y291831D01*
X33414Y291824D01*
X33368Y291811D01*
X33320Y291805D01*
X33201Y291763D01*
X33079Y291728D01*
X33037Y291704D01*
X32992Y291688D01*
X32885Y291619D01*
X32775Y291558D01*
X32729Y291518D01*
X32699Y291499D01*
X32665Y291464D01*
X32589Y291399D01*
X32047Y290857D01*
X28913Y290857D01*
X26697Y293073D01*
X26697Y296207D01*
X28913Y298423D01*
X32047Y298423D01*
X32589Y297881D01*
X32688Y297802D01*
X32782Y297718D01*
X32824Y297694D01*
X32862Y297664D01*
X32976Y297610D01*
X33087Y297549D01*
X33133Y297536D01*
X33177Y297515D01*
X33300Y297489D01*
X33422Y297454D01*
X33483Y297449D01*
X33518Y297442D01*
X33566Y297443D01*
X33666Y297435D01*
X37266Y297435D01*
X37365Y297446D01*
X37466Y297448D01*
X37538Y297466D01*
X37612Y297475D01*
X37706Y297508D01*
X37804Y297533D01*
X37870Y297567D01*
X37940Y297592D01*
X38024Y297647D01*
X38113Y297693D01*
X38170Y297741D01*
X38233Y297781D01*
X38302Y297853D01*
X38379Y297918D01*
X38423Y297978D01*
X38475Y298032D01*
X38526Y298118D01*
X38586Y298199D01*
X38616Y298267D01*
X38654Y298331D01*
X38684Y298427D01*
X38724Y298519D01*
X38737Y298592D01*
X38760Y298663D01*
X38768Y298763D01*
X38786Y298862D01*
X38782Y298936D01*
X38788Y299010D01*
X38773Y299110D01*
X38768Y299210D01*
X38747Y299281D01*
X38736Y299355D01*
X38699Y299448D01*
X38671Y299545D01*
X38635Y299610D01*
X38607Y299679D01*
X38550Y299761D01*
X38501Y299849D01*
X38436Y299925D01*
X38409Y299965D01*
X38382Y299989D01*
X38343Y300035D01*
X34594Y303784D01*
X34594Y310896D01*
X39624Y315926D01*
X46736Y315926D01*
X51766Y310896D01*
X51766Y303784D01*
X48017Y300035D01*
X47955Y299957D01*
X47885Y299884D01*
X47847Y299820D01*
X47801Y299762D01*
X47758Y299671D01*
X47706Y299585D01*
X47684Y299514D01*
X47652Y299447D01*
X47631Y299349D01*
X47600Y299253D01*
X47594Y299179D01*
X47578Y299106D01*
X47580Y299006D01*
X47572Y298906D01*
X47583Y298832D01*
X47584Y298758D01*
X47609Y298661D01*
X47624Y298561D01*
X47651Y298492D01*
X47669Y298420D01*
X47716Y298330D01*
X47753Y298237D01*
X47795Y298176D01*
X47829Y298110D01*
X47894Y298033D01*
X47951Y297951D01*
X48007Y297901D01*
X48055Y297845D01*
X48136Y297785D01*
X48210Y297718D01*
X48275Y297682D01*
X48335Y297637D01*
X48427Y297598D01*
X48515Y297549D01*
X48587Y297529D01*
X48655Y297499D01*
X48754Y297482D01*
X48851Y297454D01*
X48951Y297446D01*
X48998Y297438D01*
X49034Y297440D01*
X49094Y297435D01*
X164454Y297435D01*
X164580Y297449D01*
X164706Y297456D01*
X164752Y297469D01*
X164800Y297475D01*
X164919Y297517D01*
X165041Y297552D01*
X165083Y297576D01*
X165128Y297592D01*
X165235Y297661D01*
X165345Y297722D01*
X165391Y297762D01*
X165421Y297781D01*
X165455Y297816D01*
X165531Y297881D01*
X166073Y298423D01*
X169207Y298423D01*
X171423Y296207D01*
X171423Y293073D01*
X169207Y290857D01*
X166073Y290857D01*
X165531Y291399D01*
X165432Y291478D01*
X165338Y291562D01*
X165296Y291586D01*
X165258Y291616D01*
X165144Y291670D01*
X165033Y291731D01*
X164987Y291744D01*
X164943Y291765D01*
X164820Y291791D01*
X164698Y291826D01*
X164637Y291831D01*
X164602Y291838D01*
X164554Y291837D01*
X164454Y291845D01*
X49094Y291845D01*
X48995Y291834D01*
X48894Y291832D01*
X48822Y291814D01*
X48748Y291805D01*
X48654Y291772D01*
X48556Y291747D01*
X48490Y291713D01*
X48420Y291688D01*
X48336Y291633D01*
X48247Y291587D01*
X48190Y291539D01*
X48127Y291499D01*
X48058Y291427D01*
X47981Y291362D01*
X47937Y291302D01*
X47885Y291248D01*
X47834Y291162D01*
X47774Y291081D01*
X47744Y291013D01*
X47706Y290949D01*
X47676Y290853D01*
X47636Y290761D01*
X47623Y290688D01*
X47600Y290617D01*
X47592Y290517D01*
X47574Y290418D01*
X47578Y290344D01*
X47572Y290270D01*
X47587Y290170D01*
X47592Y290070D01*
X47613Y289999D01*
X47624Y289925D01*
X47661Y289832D01*
X47689Y289735D01*
X47725Y289670D01*
X47753Y289601D01*
X47810Y289519D01*
X47859Y289431D01*
X47924Y289355D01*
X47951Y289315D01*
X47978Y289291D01*
X48017Y289245D01*
X51766Y285496D01*
X51766Y278384D01*
X46736Y273354D01*
X39624Y273354D01*
G37*
%LPD*%
%LPC*%
G36*
X501353Y290857D02*
X501353Y290857D01*
X499137Y293073D01*
X499137Y296207D01*
X501353Y298423D01*
X502119Y298423D01*
X502245Y298437D01*
X502371Y298444D01*
X502418Y298457D01*
X502466Y298463D01*
X502585Y298505D01*
X502706Y298540D01*
X502748Y298564D01*
X502794Y298580D01*
X502900Y298649D01*
X503010Y298710D01*
X503057Y298750D01*
X503087Y298769D01*
X503120Y298804D01*
X503197Y298869D01*
X506842Y302515D01*
X582411Y302515D01*
X582537Y302529D01*
X582663Y302536D01*
X582710Y302549D01*
X582758Y302555D01*
X582877Y302597D01*
X582998Y302632D01*
X583040Y302656D01*
X583086Y302672D01*
X583192Y302741D01*
X583302Y302802D01*
X583349Y302842D01*
X583379Y302861D01*
X583412Y302896D01*
X583489Y302961D01*
X636839Y356311D01*
X636918Y356410D01*
X637002Y356504D01*
X637026Y356547D01*
X637056Y356584D01*
X637110Y356699D01*
X637171Y356809D01*
X637184Y356856D01*
X637205Y356900D01*
X637231Y357023D01*
X637266Y357145D01*
X637271Y357206D01*
X637278Y357240D01*
X637277Y357288D01*
X637285Y357389D01*
X637285Y382894D01*
X637271Y383020D01*
X637264Y383146D01*
X637251Y383192D01*
X637245Y383240D01*
X637203Y383359D01*
X637168Y383481D01*
X637144Y383523D01*
X637128Y383568D01*
X637059Y383675D01*
X636998Y383785D01*
X636958Y383831D01*
X636939Y383861D01*
X636904Y383895D01*
X636839Y383971D01*
X636297Y384513D01*
X636297Y387647D01*
X638513Y389863D01*
X641647Y389863D01*
X643863Y387647D01*
X643863Y384513D01*
X643321Y383971D01*
X643242Y383872D01*
X643158Y383778D01*
X643134Y383736D01*
X643104Y383698D01*
X643050Y383584D01*
X642989Y383473D01*
X642976Y383427D01*
X642955Y383383D01*
X642929Y383260D01*
X642894Y383138D01*
X642889Y383077D01*
X642882Y383042D01*
X642883Y382994D01*
X642875Y382894D01*
X642875Y354442D01*
X585358Y296925D01*
X509789Y296925D01*
X509663Y296911D01*
X509537Y296904D01*
X509490Y296891D01*
X509442Y296885D01*
X509323Y296843D01*
X509202Y296808D01*
X509160Y296784D01*
X509114Y296768D01*
X509008Y296699D01*
X508898Y296638D01*
X508851Y296598D01*
X508821Y296579D01*
X508788Y296544D01*
X508711Y296479D01*
X507149Y294917D01*
X507070Y294818D01*
X506986Y294724D01*
X506962Y294681D01*
X506932Y294644D01*
X506878Y294529D01*
X506817Y294419D01*
X506804Y294372D01*
X506783Y294328D01*
X506757Y294205D01*
X506722Y294083D01*
X506717Y294022D01*
X506710Y293988D01*
X506711Y293940D01*
X506703Y293839D01*
X506703Y293073D01*
X504487Y290857D01*
X501353Y290857D01*
G37*
%LPD*%
%LPC*%
G36*
X120353Y382297D02*
X120353Y382297D01*
X118137Y384513D01*
X118137Y387647D01*
X118679Y388189D01*
X118758Y388288D01*
X118842Y388382D01*
X118866Y388424D01*
X118896Y388462D01*
X118950Y388576D01*
X119011Y388687D01*
X119024Y388733D01*
X119045Y388777D01*
X119071Y388900D01*
X119106Y389022D01*
X119111Y389083D01*
X119118Y389118D01*
X119117Y389166D01*
X119125Y389266D01*
X119125Y412638D01*
X121208Y414721D01*
X121209Y414721D01*
X144079Y437591D01*
X144079Y437592D01*
X146162Y439675D01*
X181091Y439675D01*
X181217Y439689D01*
X181343Y439696D01*
X181390Y439709D01*
X181438Y439715D01*
X181557Y439757D01*
X181678Y439792D01*
X181720Y439816D01*
X181766Y439832D01*
X181872Y439901D01*
X181982Y439962D01*
X182029Y440002D01*
X182059Y440021D01*
X182092Y440056D01*
X182169Y440121D01*
X194879Y452831D01*
X194958Y452930D01*
X195042Y453024D01*
X195066Y453067D01*
X195096Y453104D01*
X195150Y453219D01*
X195211Y453329D01*
X195224Y453376D01*
X195245Y453420D01*
X195271Y453543D01*
X195306Y453665D01*
X195311Y453726D01*
X195318Y453760D01*
X195317Y453808D01*
X195325Y453909D01*
X195325Y484494D01*
X195311Y484620D01*
X195304Y484746D01*
X195291Y484792D01*
X195285Y484840D01*
X195243Y484959D01*
X195208Y485081D01*
X195184Y485123D01*
X195168Y485168D01*
X195099Y485275D01*
X195038Y485385D01*
X194998Y485431D01*
X194979Y485461D01*
X194944Y485495D01*
X194879Y485571D01*
X194337Y486113D01*
X194337Y489247D01*
X196553Y491463D01*
X199687Y491463D01*
X201903Y489247D01*
X201903Y486113D01*
X201361Y485571D01*
X201282Y485472D01*
X201198Y485378D01*
X201174Y485336D01*
X201144Y485298D01*
X201090Y485184D01*
X201029Y485073D01*
X201016Y485027D01*
X200995Y484983D01*
X200969Y484860D01*
X200934Y484738D01*
X200929Y484677D01*
X200922Y484642D01*
X200923Y484594D01*
X200915Y484494D01*
X200915Y450962D01*
X184038Y434085D01*
X149109Y434085D01*
X148983Y434071D01*
X148857Y434064D01*
X148810Y434051D01*
X148762Y434045D01*
X148643Y434003D01*
X148522Y433968D01*
X148480Y433944D01*
X148434Y433928D01*
X148328Y433859D01*
X148218Y433798D01*
X148171Y433758D01*
X148141Y433739D01*
X148108Y433704D01*
X148031Y433639D01*
X125161Y410769D01*
X125082Y410670D01*
X124998Y410576D01*
X124974Y410533D01*
X124944Y410496D01*
X124890Y410381D01*
X124829Y410271D01*
X124816Y410224D01*
X124795Y410180D01*
X124769Y410057D01*
X124734Y409935D01*
X124729Y409874D01*
X124722Y409840D01*
X124723Y409792D01*
X124715Y409691D01*
X124715Y389266D01*
X124729Y389140D01*
X124736Y389014D01*
X124749Y388968D01*
X124755Y388920D01*
X124797Y388801D01*
X124832Y388679D01*
X124856Y388637D01*
X124872Y388592D01*
X124941Y388485D01*
X125002Y388375D01*
X125042Y388329D01*
X125061Y388299D01*
X125096Y388265D01*
X125161Y388189D01*
X125703Y387647D01*
X125703Y384513D01*
X123487Y382297D01*
X120353Y382297D01*
G37*
%LPD*%
%LPC*%
G36*
X684233Y118137D02*
X684233Y118137D01*
X682017Y120353D01*
X682017Y123487D01*
X682559Y124029D01*
X682638Y124128D01*
X682722Y124222D01*
X682746Y124264D01*
X682776Y124302D01*
X682830Y124416D01*
X682891Y124527D01*
X682904Y124573D01*
X682925Y124617D01*
X682951Y124740D01*
X682986Y124862D01*
X682991Y124923D01*
X682998Y124957D01*
X682997Y125006D01*
X683005Y125106D01*
X683005Y168798D01*
X707959Y193751D01*
X708038Y193850D01*
X708122Y193944D01*
X708146Y193987D01*
X708176Y194024D01*
X708230Y194139D01*
X708291Y194249D01*
X708304Y194296D01*
X708325Y194340D01*
X708351Y194463D01*
X708386Y194585D01*
X708391Y194646D01*
X708398Y194680D01*
X708397Y194728D01*
X708405Y194829D01*
X708405Y240654D01*
X708391Y240780D01*
X708384Y240906D01*
X708371Y240952D01*
X708365Y241000D01*
X708323Y241119D01*
X708288Y241241D01*
X708264Y241283D01*
X708248Y241328D01*
X708179Y241435D01*
X708118Y241545D01*
X708078Y241591D01*
X708059Y241621D01*
X708024Y241655D01*
X707959Y241731D01*
X707417Y242273D01*
X707417Y245407D01*
X709633Y247623D01*
X712767Y247623D01*
X714983Y245407D01*
X714983Y242273D01*
X714441Y241731D01*
X714362Y241632D01*
X714278Y241538D01*
X714254Y241496D01*
X714224Y241458D01*
X714170Y241344D01*
X714109Y241233D01*
X714096Y241187D01*
X714075Y241143D01*
X714049Y241020D01*
X714014Y240898D01*
X714009Y240837D01*
X714002Y240802D01*
X714003Y240754D01*
X713995Y240654D01*
X713995Y191882D01*
X689041Y166929D01*
X688962Y166830D01*
X688878Y166736D01*
X688854Y166693D01*
X688824Y166656D01*
X688770Y166541D01*
X688709Y166431D01*
X688696Y166384D01*
X688675Y166340D01*
X688649Y166217D01*
X688614Y166095D01*
X688609Y166034D01*
X688602Y166000D01*
X688603Y165952D01*
X688595Y165851D01*
X688595Y125106D01*
X688609Y124980D01*
X688616Y124854D01*
X688629Y124808D01*
X688635Y124760D01*
X688677Y124640D01*
X688712Y124519D01*
X688736Y124477D01*
X688752Y124431D01*
X688821Y124325D01*
X688882Y124215D01*
X688922Y124169D01*
X688941Y124139D01*
X688976Y124105D01*
X689041Y124029D01*
X689583Y123487D01*
X689583Y120353D01*
X687367Y118137D01*
X684233Y118137D01*
G37*
%LPD*%
%LPC*%
G36*
X541993Y102897D02*
X541993Y102897D01*
X539777Y105113D01*
X539777Y108247D01*
X541993Y110463D01*
X542759Y110463D01*
X542885Y110477D01*
X543011Y110484D01*
X543058Y110497D01*
X543106Y110503D01*
X543225Y110545D01*
X543346Y110580D01*
X543388Y110604D01*
X543434Y110620D01*
X543540Y110689D01*
X543650Y110750D01*
X543697Y110790D01*
X543727Y110809D01*
X543760Y110844D01*
X543837Y110909D01*
X555559Y122631D01*
X555638Y122730D01*
X555722Y122824D01*
X555746Y122867D01*
X555776Y122904D01*
X555830Y123019D01*
X555891Y123129D01*
X555904Y123176D01*
X555925Y123220D01*
X555951Y123343D01*
X555986Y123465D01*
X555991Y123526D01*
X555998Y123560D01*
X555997Y123608D01*
X556005Y123709D01*
X556005Y225414D01*
X555991Y225540D01*
X555984Y225666D01*
X555971Y225712D01*
X555965Y225760D01*
X555923Y225879D01*
X555888Y226001D01*
X555864Y226043D01*
X555848Y226088D01*
X555779Y226195D01*
X555718Y226305D01*
X555678Y226351D01*
X555659Y226381D01*
X555624Y226415D01*
X555559Y226491D01*
X555017Y227033D01*
X555017Y230167D01*
X557233Y232383D01*
X560367Y232383D01*
X562583Y230167D01*
X562583Y227033D01*
X562041Y226491D01*
X561962Y226392D01*
X561878Y226298D01*
X561854Y226256D01*
X561824Y226218D01*
X561770Y226104D01*
X561709Y225993D01*
X561696Y225947D01*
X561675Y225903D01*
X561649Y225780D01*
X561614Y225658D01*
X561609Y225597D01*
X561602Y225562D01*
X561603Y225514D01*
X561595Y225414D01*
X561595Y120762D01*
X547789Y106957D01*
X547710Y106858D01*
X547626Y106764D01*
X547602Y106721D01*
X547572Y106684D01*
X547518Y106569D01*
X547457Y106459D01*
X547444Y106412D01*
X547423Y106368D01*
X547397Y106245D01*
X547362Y106123D01*
X547357Y106062D01*
X547350Y106028D01*
X547351Y105980D01*
X547343Y105879D01*
X547343Y105113D01*
X545127Y102897D01*
X541993Y102897D01*
G37*
%LPD*%
%LPC*%
G36*
X674073Y87657D02*
X674073Y87657D01*
X671857Y89873D01*
X671857Y93007D01*
X672399Y93549D01*
X672478Y93648D01*
X672562Y93742D01*
X672586Y93784D01*
X672616Y93822D01*
X672670Y93936D01*
X672731Y94047D01*
X672744Y94093D01*
X672765Y94137D01*
X672791Y94260D01*
X672826Y94382D01*
X672831Y94443D01*
X672838Y94478D01*
X672837Y94526D01*
X672845Y94626D01*
X672845Y145531D01*
X672831Y145657D01*
X672824Y145783D01*
X672811Y145830D01*
X672805Y145878D01*
X672763Y145997D01*
X672728Y146118D01*
X672704Y146160D01*
X672688Y146206D01*
X672619Y146312D01*
X672558Y146422D01*
X672518Y146469D01*
X672499Y146499D01*
X672464Y146532D01*
X672399Y146609D01*
X664769Y154239D01*
X664670Y154318D01*
X664576Y154402D01*
X664533Y154426D01*
X664496Y154456D01*
X664381Y154510D01*
X664271Y154571D01*
X664224Y154584D01*
X664180Y154605D01*
X664057Y154631D01*
X663935Y154666D01*
X663874Y154671D01*
X663840Y154678D01*
X663792Y154677D01*
X663691Y154685D01*
X638186Y154685D01*
X638060Y154671D01*
X637934Y154664D01*
X637888Y154651D01*
X637840Y154645D01*
X637721Y154603D01*
X637599Y154568D01*
X637557Y154544D01*
X637512Y154528D01*
X637405Y154459D01*
X637295Y154398D01*
X637249Y154358D01*
X637219Y154339D01*
X637185Y154304D01*
X637109Y154239D01*
X636567Y153697D01*
X633433Y153697D01*
X631217Y155913D01*
X631217Y159047D01*
X633433Y161263D01*
X636567Y161263D01*
X637109Y160721D01*
X637208Y160642D01*
X637302Y160558D01*
X637344Y160534D01*
X637382Y160504D01*
X637496Y160450D01*
X637607Y160389D01*
X637653Y160376D01*
X637697Y160355D01*
X637820Y160329D01*
X637942Y160294D01*
X638003Y160289D01*
X638038Y160282D01*
X638086Y160283D01*
X638186Y160275D01*
X666638Y160275D01*
X678435Y148478D01*
X678435Y94626D01*
X678449Y94500D01*
X678456Y94374D01*
X678469Y94328D01*
X678475Y94280D01*
X678517Y94161D01*
X678552Y94039D01*
X678576Y93997D01*
X678592Y93952D01*
X678661Y93845D01*
X678722Y93735D01*
X678762Y93689D01*
X678781Y93659D01*
X678816Y93625D01*
X678881Y93549D01*
X679423Y93007D01*
X679423Y89873D01*
X677207Y87657D01*
X674073Y87657D01*
G37*
%LPD*%
%LPC*%
G36*
X602953Y82577D02*
X602953Y82577D01*
X600737Y84793D01*
X600737Y87927D01*
X602953Y90143D01*
X606087Y90143D01*
X606629Y89601D01*
X606728Y89522D01*
X606822Y89438D01*
X606864Y89414D01*
X606902Y89384D01*
X607016Y89330D01*
X607127Y89269D01*
X607173Y89256D01*
X607217Y89235D01*
X607340Y89209D01*
X607462Y89174D01*
X607523Y89169D01*
X607557Y89162D01*
X607606Y89163D01*
X607706Y89155D01*
X617971Y89155D01*
X618097Y89169D01*
X618223Y89176D01*
X618270Y89189D01*
X618318Y89195D01*
X618437Y89237D01*
X618558Y89272D01*
X618600Y89296D01*
X618646Y89312D01*
X618752Y89381D01*
X618862Y89442D01*
X618909Y89482D01*
X618939Y89501D01*
X618972Y89536D01*
X619049Y89601D01*
X636839Y107391D01*
X636918Y107490D01*
X637002Y107584D01*
X637026Y107627D01*
X637056Y107664D01*
X637110Y107779D01*
X637171Y107889D01*
X637184Y107936D01*
X637205Y107980D01*
X637231Y108103D01*
X637266Y108225D01*
X637271Y108286D01*
X637278Y108320D01*
X637277Y108368D01*
X637285Y108469D01*
X637285Y118734D01*
X637271Y118860D01*
X637264Y118986D01*
X637251Y119032D01*
X637245Y119080D01*
X637203Y119199D01*
X637168Y119321D01*
X637144Y119363D01*
X637128Y119408D01*
X637059Y119515D01*
X636998Y119625D01*
X636958Y119671D01*
X636939Y119701D01*
X636904Y119735D01*
X636839Y119811D01*
X636297Y120353D01*
X636297Y123487D01*
X638513Y125703D01*
X641647Y125703D01*
X643863Y123487D01*
X643863Y120353D01*
X643321Y119811D01*
X643242Y119712D01*
X643158Y119618D01*
X643134Y119576D01*
X643104Y119538D01*
X643050Y119424D01*
X642989Y119313D01*
X642976Y119267D01*
X642955Y119223D01*
X642929Y119100D01*
X642894Y118978D01*
X642889Y118917D01*
X642882Y118882D01*
X642883Y118834D01*
X642875Y118734D01*
X642875Y105522D01*
X620918Y83565D01*
X607706Y83565D01*
X607580Y83551D01*
X607454Y83544D01*
X607408Y83531D01*
X607360Y83525D01*
X607240Y83483D01*
X607119Y83448D01*
X607077Y83424D01*
X607031Y83408D01*
X606925Y83339D01*
X606815Y83278D01*
X606769Y83238D01*
X606739Y83219D01*
X606705Y83184D01*
X606629Y83119D01*
X606087Y82577D01*
X602953Y82577D01*
G37*
%LPD*%
%LPC*%
G36*
X399822Y919879D02*
X399822Y919879D01*
X395779Y921554D01*
X392684Y924649D01*
X391009Y928692D01*
X391009Y933068D01*
X392684Y937111D01*
X395779Y940206D01*
X399822Y941881D01*
X404198Y941881D01*
X408241Y940206D01*
X411336Y937111D01*
X413011Y933068D01*
X413011Y928692D01*
X411336Y924649D01*
X408241Y921554D01*
X404198Y919879D01*
X399822Y919879D01*
G37*
%LPD*%
%LPC*%
G36*
X454322Y919879D02*
X454322Y919879D01*
X450279Y921554D01*
X447184Y924649D01*
X445509Y928692D01*
X445509Y933068D01*
X447184Y937111D01*
X450279Y940206D01*
X454322Y941881D01*
X458698Y941881D01*
X462741Y940206D01*
X465836Y937111D01*
X467511Y933068D01*
X467511Y928692D01*
X465836Y924649D01*
X462741Y921554D01*
X458698Y919879D01*
X454322Y919879D01*
G37*
%LPD*%
%LPC*%
G36*
X516117Y921909D02*
X516117Y921909D01*
X512342Y923473D01*
X509453Y926362D01*
X507889Y930137D01*
X507889Y934223D01*
X509453Y937998D01*
X512342Y940887D01*
X516117Y942451D01*
X520203Y942451D01*
X523978Y940887D01*
X526867Y937998D01*
X528431Y934223D01*
X528431Y930137D01*
X526867Y926362D01*
X523978Y923473D01*
X520203Y921909D01*
X516117Y921909D01*
G37*
%LPD*%
%LPC*%
G36*
X338317Y642509D02*
X338317Y642509D01*
X334542Y644073D01*
X331653Y646962D01*
X330089Y650737D01*
X330089Y654823D01*
X331653Y658598D01*
X334542Y661487D01*
X338317Y663051D01*
X342403Y663051D01*
X346178Y661487D01*
X349067Y658598D01*
X350631Y654823D01*
X350631Y650737D01*
X349067Y646962D01*
X346178Y644073D01*
X342403Y642509D01*
X338317Y642509D01*
G37*
%LPD*%
%LPC*%
G36*
X338317Y464709D02*
X338317Y464709D01*
X334542Y466273D01*
X331653Y469162D01*
X330089Y472937D01*
X330089Y477023D01*
X331653Y480798D01*
X334542Y483687D01*
X338317Y485251D01*
X342403Y485251D01*
X346178Y483687D01*
X349067Y480798D01*
X350631Y477023D01*
X350631Y472937D01*
X349067Y469162D01*
X346178Y466273D01*
X342403Y464709D01*
X338317Y464709D01*
G37*
%LPD*%
%LPC*%
G36*
X338317Y896509D02*
X338317Y896509D01*
X334542Y898073D01*
X331653Y900962D01*
X330089Y904737D01*
X330089Y908823D01*
X331653Y912598D01*
X334542Y915487D01*
X338317Y917051D01*
X342403Y917051D01*
X346178Y915487D01*
X349067Y912598D01*
X350631Y908823D01*
X350631Y904737D01*
X349067Y900962D01*
X346178Y898073D01*
X342403Y896509D01*
X338317Y896509D01*
G37*
%LPD*%
%LPC*%
G36*
X338317Y921909D02*
X338317Y921909D01*
X334542Y923473D01*
X331653Y926362D01*
X330089Y930137D01*
X330089Y934223D01*
X331653Y937998D01*
X334542Y940887D01*
X338317Y942451D01*
X342403Y942451D01*
X346178Y940887D01*
X349067Y937998D01*
X350631Y934223D01*
X350631Y930137D01*
X349067Y926362D01*
X346178Y923473D01*
X342403Y921909D01*
X338317Y921909D01*
G37*
%LPD*%
%LPC*%
G36*
X338317Y515509D02*
X338317Y515509D01*
X334542Y517073D01*
X331653Y519962D01*
X330089Y523737D01*
X330089Y527823D01*
X331653Y531598D01*
X334542Y534487D01*
X338317Y536051D01*
X342403Y536051D01*
X346178Y534487D01*
X349067Y531598D01*
X350631Y527823D01*
X350631Y523737D01*
X349067Y519962D01*
X346178Y517073D01*
X342403Y515509D01*
X338317Y515509D01*
G37*
%LPD*%
%LPC*%
G36*
X516117Y515509D02*
X516117Y515509D01*
X512342Y517073D01*
X509453Y519962D01*
X507889Y523737D01*
X507889Y527823D01*
X509453Y531598D01*
X512342Y534487D01*
X516117Y536051D01*
X520203Y536051D01*
X523978Y534487D01*
X526867Y531598D01*
X528431Y527823D01*
X528431Y523737D01*
X526867Y519962D01*
X523978Y517073D01*
X520203Y515509D01*
X516117Y515509D01*
G37*
%LPD*%
%LPC*%
G36*
X338317Y540909D02*
X338317Y540909D01*
X334542Y542473D01*
X331653Y545362D01*
X330089Y549137D01*
X330089Y553223D01*
X331653Y556998D01*
X334542Y559887D01*
X338317Y561451D01*
X342403Y561451D01*
X346178Y559887D01*
X349067Y556998D01*
X350631Y553223D01*
X350631Y549137D01*
X349067Y545362D01*
X346178Y542473D01*
X342403Y540909D01*
X338317Y540909D01*
G37*
%LPD*%
%LPC*%
G36*
X516117Y540909D02*
X516117Y540909D01*
X512342Y542473D01*
X509453Y545362D01*
X507889Y549137D01*
X507889Y553223D01*
X509453Y556998D01*
X512342Y559887D01*
X516117Y561451D01*
X520203Y561451D01*
X523978Y559887D01*
X526867Y556998D01*
X528431Y553223D01*
X528431Y549137D01*
X526867Y545362D01*
X523978Y542473D01*
X520203Y540909D01*
X516117Y540909D01*
G37*
%LPD*%
%LPC*%
G36*
X516117Y566309D02*
X516117Y566309D01*
X512342Y567873D01*
X509453Y570762D01*
X507889Y574537D01*
X507889Y578623D01*
X509453Y582398D01*
X512342Y585287D01*
X516117Y586851D01*
X520203Y586851D01*
X523978Y585287D01*
X526867Y582398D01*
X528431Y578623D01*
X528431Y574537D01*
X526867Y570762D01*
X523978Y567873D01*
X520203Y566309D01*
X516117Y566309D01*
G37*
%LPD*%
%LPC*%
G36*
X516117Y896509D02*
X516117Y896509D01*
X512342Y898073D01*
X509453Y900962D01*
X507889Y904737D01*
X507889Y908823D01*
X509453Y912598D01*
X512342Y915487D01*
X516117Y917051D01*
X520203Y917051D01*
X523978Y915487D01*
X526867Y912598D01*
X528431Y908823D01*
X528431Y904737D01*
X526867Y900962D01*
X523978Y898073D01*
X520203Y896509D01*
X516117Y896509D01*
G37*
%LPD*%
%LPC*%
G36*
X338317Y439309D02*
X338317Y439309D01*
X334542Y440873D01*
X331653Y443762D01*
X330089Y447537D01*
X330089Y451623D01*
X331653Y455398D01*
X334542Y458287D01*
X338317Y459851D01*
X342403Y459851D01*
X346178Y458287D01*
X349067Y455398D01*
X350631Y451623D01*
X350631Y447537D01*
X349067Y443762D01*
X346178Y440873D01*
X342403Y439309D01*
X338317Y439309D01*
G37*
%LPD*%
%LPC*%
G36*
X516117Y439309D02*
X516117Y439309D01*
X512342Y440873D01*
X509453Y443762D01*
X507889Y447537D01*
X507889Y451623D01*
X509453Y455398D01*
X512342Y458287D01*
X516117Y459851D01*
X520203Y459851D01*
X523978Y458287D01*
X526867Y455398D01*
X528431Y451623D01*
X528431Y447537D01*
X526867Y443762D01*
X523978Y440873D01*
X520203Y439309D01*
X516117Y439309D01*
G37*
%LPD*%
%LPC*%
G36*
X516117Y718709D02*
X516117Y718709D01*
X512342Y720273D01*
X509453Y723162D01*
X507889Y726937D01*
X507889Y731023D01*
X509453Y734798D01*
X512342Y737687D01*
X516117Y739251D01*
X520203Y739251D01*
X523978Y737687D01*
X526867Y734798D01*
X528431Y731023D01*
X528431Y726937D01*
X526867Y723162D01*
X523978Y720273D01*
X520203Y718709D01*
X516117Y718709D01*
G37*
%LPD*%
%LPC*%
G36*
X338317Y718709D02*
X338317Y718709D01*
X334542Y720273D01*
X331653Y723162D01*
X330089Y726937D01*
X330089Y731023D01*
X331653Y734798D01*
X334542Y737687D01*
X338317Y739251D01*
X342403Y739251D01*
X346178Y737687D01*
X349067Y734798D01*
X350631Y731023D01*
X350631Y726937D01*
X349067Y723162D01*
X346178Y720273D01*
X342403Y718709D01*
X338317Y718709D01*
G37*
%LPD*%
%LPC*%
G36*
X516117Y693309D02*
X516117Y693309D01*
X512342Y694873D01*
X509453Y697762D01*
X507889Y701537D01*
X507889Y705623D01*
X509453Y709398D01*
X512342Y712287D01*
X516117Y713851D01*
X520203Y713851D01*
X523978Y712287D01*
X526867Y709398D01*
X528431Y705623D01*
X528431Y701537D01*
X526867Y697762D01*
X523978Y694873D01*
X520203Y693309D01*
X516117Y693309D01*
G37*
%LPD*%
%LPC*%
G36*
X338317Y693309D02*
X338317Y693309D01*
X334542Y694873D01*
X331653Y697762D01*
X330089Y701537D01*
X330089Y705623D01*
X331653Y709398D01*
X334542Y712287D01*
X338317Y713851D01*
X342403Y713851D01*
X346178Y712287D01*
X349067Y709398D01*
X350631Y705623D01*
X350631Y701537D01*
X349067Y697762D01*
X346178Y694873D01*
X342403Y693309D01*
X338317Y693309D01*
G37*
%LPD*%
%LPC*%
G36*
X516117Y591709D02*
X516117Y591709D01*
X512342Y593273D01*
X509453Y596162D01*
X507889Y599937D01*
X507889Y604023D01*
X509453Y607798D01*
X512342Y610687D01*
X516117Y612251D01*
X520203Y612251D01*
X523978Y610687D01*
X526867Y607798D01*
X528431Y604023D01*
X528431Y599937D01*
X526867Y596162D01*
X523978Y593273D01*
X520203Y591709D01*
X516117Y591709D01*
G37*
%LPD*%
%LPC*%
G36*
X516117Y667909D02*
X516117Y667909D01*
X512342Y669473D01*
X509453Y672362D01*
X507889Y676137D01*
X507889Y680223D01*
X509453Y683998D01*
X512342Y686887D01*
X516117Y688451D01*
X520203Y688451D01*
X523978Y686887D01*
X526867Y683998D01*
X528431Y680223D01*
X528431Y676137D01*
X526867Y672362D01*
X523978Y669473D01*
X520203Y667909D01*
X516117Y667909D01*
G37*
%LPD*%
%LPC*%
G36*
X338317Y667909D02*
X338317Y667909D01*
X334542Y669473D01*
X331653Y672362D01*
X330089Y676137D01*
X330089Y680223D01*
X331653Y683998D01*
X334542Y686887D01*
X338317Y688451D01*
X342403Y688451D01*
X346178Y686887D01*
X349067Y683998D01*
X350631Y680223D01*
X350631Y676137D01*
X349067Y672362D01*
X346178Y669473D01*
X342403Y667909D01*
X338317Y667909D01*
G37*
%LPD*%
%LPC*%
G36*
X516117Y642509D02*
X516117Y642509D01*
X512342Y644073D01*
X509453Y646962D01*
X507889Y650737D01*
X507889Y654823D01*
X509453Y658598D01*
X512342Y661487D01*
X516117Y663051D01*
X520203Y663051D01*
X523978Y661487D01*
X526867Y658598D01*
X528431Y654823D01*
X528431Y650737D01*
X526867Y646962D01*
X523978Y644073D01*
X520203Y642509D01*
X516117Y642509D01*
G37*
%LPD*%
%LPC*%
G36*
X516117Y464709D02*
X516117Y464709D01*
X512342Y466273D01*
X509453Y469162D01*
X507889Y472937D01*
X507889Y477023D01*
X509453Y480798D01*
X512342Y483687D01*
X516117Y485251D01*
X520203Y485251D01*
X523978Y483687D01*
X526867Y480798D01*
X528431Y477023D01*
X528431Y472937D01*
X526867Y469162D01*
X523978Y466273D01*
X520203Y464709D01*
X516117Y464709D01*
G37*
%LPD*%
%LPC*%
G36*
X338317Y566309D02*
X338317Y566309D01*
X334542Y567873D01*
X331653Y570762D01*
X330089Y574537D01*
X330089Y578623D01*
X331653Y582398D01*
X334542Y585287D01*
X338317Y586851D01*
X342403Y586851D01*
X346178Y585287D01*
X349067Y582398D01*
X350631Y578623D01*
X350631Y574537D01*
X349067Y570762D01*
X346178Y567873D01*
X342403Y566309D01*
X338317Y566309D01*
G37*
%LPD*%
%LPC*%
G36*
X338317Y591709D02*
X338317Y591709D01*
X334542Y593273D01*
X331653Y596162D01*
X330089Y599937D01*
X330089Y604023D01*
X331653Y607798D01*
X334542Y610687D01*
X338317Y612251D01*
X342403Y612251D01*
X346178Y610687D01*
X349067Y607798D01*
X350631Y604023D01*
X350631Y599937D01*
X349067Y596162D01*
X346178Y593273D01*
X342403Y591709D01*
X338317Y591709D01*
G37*
%LPD*%
%LPC*%
G36*
X401817Y441609D02*
X401817Y441609D01*
X398042Y443173D01*
X395153Y446062D01*
X393589Y449837D01*
X393589Y453923D01*
X395153Y457698D01*
X398042Y460587D01*
X401817Y462151D01*
X405903Y462151D01*
X409678Y460587D01*
X412567Y457698D01*
X414131Y453923D01*
X414131Y449837D01*
X412567Y446062D01*
X409678Y443173D01*
X405903Y441609D01*
X401817Y441609D01*
G37*
%LPD*%
%LPC*%
G36*
X427217Y441609D02*
X427217Y441609D01*
X423442Y443173D01*
X420553Y446062D01*
X418989Y449837D01*
X418989Y453923D01*
X420553Y457698D01*
X423442Y460587D01*
X427217Y462151D01*
X431303Y462151D01*
X435078Y460587D01*
X437967Y457698D01*
X439531Y453923D01*
X439531Y449837D01*
X437967Y446062D01*
X435078Y443173D01*
X431303Y441609D01*
X427217Y441609D01*
G37*
%LPD*%
%LPC*%
G36*
X452617Y441609D02*
X452617Y441609D01*
X448842Y443173D01*
X445953Y446062D01*
X444389Y449837D01*
X444389Y453923D01*
X445953Y457698D01*
X448842Y460587D01*
X452617Y462151D01*
X456703Y462151D01*
X460478Y460587D01*
X463367Y457698D01*
X464931Y453923D01*
X464931Y449837D01*
X463367Y446062D01*
X460478Y443173D01*
X456703Y441609D01*
X452617Y441609D01*
G37*
%LPD*%
%LPC*%
G36*
X403120Y891079D02*
X403120Y891079D01*
X399628Y892526D01*
X396956Y895198D01*
X395509Y898690D01*
X395509Y902470D01*
X396956Y905962D01*
X399628Y908634D01*
X403120Y910081D01*
X406900Y910081D01*
X410392Y908634D01*
X413064Y905962D01*
X414511Y902470D01*
X414511Y898690D01*
X413064Y895198D01*
X410392Y892526D01*
X406900Y891079D01*
X403120Y891079D01*
G37*
%LPD*%
%LPC*%
G36*
X451620Y891079D02*
X451620Y891079D01*
X448128Y892526D01*
X445456Y895198D01*
X444009Y898690D01*
X444009Y902470D01*
X445456Y905962D01*
X448128Y908634D01*
X451620Y910081D01*
X455400Y910081D01*
X458892Y908634D01*
X461564Y905962D01*
X463011Y902470D01*
X463011Y898690D01*
X461564Y895198D01*
X458892Y892526D01*
X455400Y891079D01*
X451620Y891079D01*
G37*
%LPD*%
%LPC*%
G36*
X475953Y174017D02*
X475953Y174017D01*
X473737Y176233D01*
X473737Y179367D01*
X474279Y179909D01*
X474358Y180008D01*
X474442Y180102D01*
X474466Y180144D01*
X474496Y180182D01*
X474550Y180296D01*
X474611Y180407D01*
X474624Y180453D01*
X474645Y180497D01*
X474671Y180620D01*
X474706Y180742D01*
X474711Y180803D01*
X474718Y180838D01*
X474717Y180886D01*
X474725Y180986D01*
X474725Y215254D01*
X474711Y215380D01*
X474704Y215506D01*
X474691Y215552D01*
X474685Y215600D01*
X474643Y215719D01*
X474608Y215841D01*
X474584Y215883D01*
X474568Y215928D01*
X474499Y216035D01*
X474438Y216145D01*
X474398Y216191D01*
X474379Y216221D01*
X474344Y216255D01*
X474315Y216289D01*
X474311Y216295D01*
X474306Y216299D01*
X474279Y216331D01*
X473737Y216873D01*
X473737Y220007D01*
X475953Y222223D01*
X479087Y222223D01*
X481303Y220007D01*
X481303Y216873D01*
X480761Y216331D01*
X480693Y216246D01*
X480663Y216215D01*
X480656Y216203D01*
X480598Y216138D01*
X480574Y216096D01*
X480544Y216058D01*
X480490Y215944D01*
X480429Y215833D01*
X480416Y215787D01*
X480395Y215743D01*
X480369Y215620D01*
X480334Y215498D01*
X480329Y215437D01*
X480322Y215402D01*
X480323Y215354D01*
X480315Y215254D01*
X480315Y180986D01*
X480329Y180860D01*
X480336Y180734D01*
X480349Y180688D01*
X480355Y180640D01*
X480397Y180521D01*
X480432Y180399D01*
X480456Y180357D01*
X480472Y180312D01*
X480541Y180205D01*
X480602Y180095D01*
X480642Y180049D01*
X480661Y180019D01*
X480696Y179985D01*
X480761Y179909D01*
X481303Y179367D01*
X481303Y176233D01*
X479087Y174017D01*
X475953Y174017D01*
G37*
%LPD*%
%LPC*%
G36*
X451104Y148894D02*
X451104Y148894D01*
X446074Y153924D01*
X446074Y161036D01*
X451104Y166066D01*
X458216Y166066D01*
X463246Y161036D01*
X463246Y153924D01*
X458216Y148894D01*
X451104Y148894D01*
G37*
%LPD*%
%LPC*%
G36*
X39624Y209854D02*
X39624Y209854D01*
X34594Y214884D01*
X34594Y221996D01*
X39624Y227026D01*
X46736Y227026D01*
X51766Y221996D01*
X51766Y214884D01*
X46736Y209854D01*
X39624Y209854D01*
G37*
%LPD*%
%LPC*%
G36*
X39624Y235254D02*
X39624Y235254D01*
X34594Y240284D01*
X34594Y247396D01*
X39624Y252426D01*
X46736Y252426D01*
X51766Y247396D01*
X51766Y240284D01*
X46736Y235254D01*
X39624Y235254D01*
G37*
%LPD*%
%LPC*%
G36*
X342859Y883879D02*
X342859Y883879D01*
X342859Y892669D01*
X343063Y892637D01*
X344790Y892075D01*
X346409Y891251D01*
X347878Y890183D01*
X349163Y888898D01*
X350231Y887429D01*
X351055Y885810D01*
X351617Y884083D01*
X351649Y883879D01*
X342859Y883879D01*
G37*
%LPD*%
%LPC*%
G36*
X520659Y756879D02*
X520659Y756879D01*
X520659Y765669D01*
X520863Y765637D01*
X522590Y765075D01*
X524209Y764251D01*
X525678Y763183D01*
X526963Y761898D01*
X528031Y760429D01*
X528855Y758810D01*
X529417Y757083D01*
X529449Y756879D01*
X520659Y756879D01*
G37*
%LPD*%
%LPC*%
G36*
X342859Y629879D02*
X342859Y629879D01*
X342859Y638669D01*
X343063Y638637D01*
X344790Y638075D01*
X346409Y637251D01*
X347878Y636183D01*
X349163Y634898D01*
X350231Y633429D01*
X351055Y631810D01*
X351617Y630083D01*
X351649Y629879D01*
X342859Y629879D01*
G37*
%LPD*%
%LPC*%
G36*
X342859Y756879D02*
X342859Y756879D01*
X342859Y765669D01*
X343063Y765637D01*
X344790Y765075D01*
X346409Y764251D01*
X347878Y763183D01*
X349163Y761898D01*
X350231Y760429D01*
X351055Y758810D01*
X351617Y757083D01*
X351649Y756879D01*
X342859Y756879D01*
G37*
%LPD*%
%LPC*%
G36*
X520659Y883879D02*
X520659Y883879D01*
X520659Y892669D01*
X520863Y892637D01*
X522590Y892075D01*
X524209Y891251D01*
X525678Y890183D01*
X526963Y888898D01*
X528031Y887429D01*
X528855Y885810D01*
X529417Y884083D01*
X529449Y883879D01*
X520659Y883879D01*
G37*
%LPD*%
%LPC*%
G36*
X520659Y629879D02*
X520659Y629879D01*
X520659Y638669D01*
X520863Y638637D01*
X522590Y638075D01*
X524209Y637251D01*
X525678Y636183D01*
X526963Y634898D01*
X528031Y633429D01*
X528855Y631810D01*
X529417Y630083D01*
X529449Y629879D01*
X520659Y629879D01*
G37*
%LPD*%
%LPC*%
G36*
X342859Y502879D02*
X342859Y502879D01*
X342859Y511669D01*
X343063Y511637D01*
X344790Y511075D01*
X346409Y510251D01*
X347878Y509183D01*
X349163Y507898D01*
X350231Y506429D01*
X351055Y504810D01*
X351617Y503083D01*
X351649Y502879D01*
X342859Y502879D01*
G37*
%LPD*%
%LPC*%
G36*
X520659Y502879D02*
X520659Y502879D01*
X520659Y511669D01*
X520863Y511637D01*
X522590Y511075D01*
X524209Y510251D01*
X525678Y509183D01*
X526963Y507898D01*
X528031Y506429D01*
X528855Y504810D01*
X529417Y503083D01*
X529449Y502879D01*
X520659Y502879D01*
G37*
%LPD*%
%LPC*%
G36*
X506871Y502879D02*
X506871Y502879D01*
X506903Y503083D01*
X507465Y504810D01*
X508289Y506429D01*
X509357Y507898D01*
X510642Y509183D01*
X512111Y510251D01*
X513730Y511075D01*
X515457Y511637D01*
X515661Y511669D01*
X515661Y502879D01*
X506871Y502879D01*
G37*
%LPD*%
%LPC*%
G36*
X520659Y497881D02*
X520659Y497881D01*
X529449Y497881D01*
X529417Y497677D01*
X528855Y495950D01*
X528031Y494331D01*
X526963Y492862D01*
X525678Y491577D01*
X524209Y490509D01*
X522590Y489685D01*
X520863Y489123D01*
X520659Y489091D01*
X520659Y497881D01*
G37*
%LPD*%
%LPC*%
G36*
X520659Y878881D02*
X520659Y878881D01*
X529449Y878881D01*
X529417Y878677D01*
X528855Y876950D01*
X528031Y875331D01*
X526963Y873862D01*
X525678Y872577D01*
X524209Y871509D01*
X522590Y870685D01*
X520863Y870123D01*
X520659Y870091D01*
X520659Y878881D01*
G37*
%LPD*%
%LPC*%
G36*
X342859Y497881D02*
X342859Y497881D01*
X351649Y497881D01*
X351617Y497677D01*
X351055Y495950D01*
X350231Y494331D01*
X349163Y492862D01*
X347878Y491577D01*
X346409Y490509D01*
X344790Y489685D01*
X343063Y489123D01*
X342859Y489091D01*
X342859Y497881D01*
G37*
%LPD*%
%LPC*%
G36*
X342859Y878881D02*
X342859Y878881D01*
X351649Y878881D01*
X351617Y878677D01*
X351055Y876950D01*
X350231Y875331D01*
X349163Y873862D01*
X347878Y872577D01*
X346409Y871509D01*
X344790Y870685D01*
X343063Y870123D01*
X342859Y870091D01*
X342859Y878881D01*
G37*
%LPD*%
%LPC*%
G36*
X329071Y502879D02*
X329071Y502879D01*
X329103Y503083D01*
X329665Y504810D01*
X330489Y506429D01*
X331557Y507898D01*
X332842Y509183D01*
X334311Y510251D01*
X335930Y511075D01*
X337657Y511637D01*
X337861Y511669D01*
X337861Y502879D01*
X329071Y502879D01*
G37*
%LPD*%
%LPC*%
G36*
X506871Y883879D02*
X506871Y883879D01*
X506903Y884083D01*
X507465Y885810D01*
X508289Y887429D01*
X509357Y888898D01*
X510642Y890183D01*
X512111Y891251D01*
X513730Y892075D01*
X515457Y892637D01*
X515661Y892669D01*
X515661Y883879D01*
X506871Y883879D01*
G37*
%LPD*%
%LPC*%
G36*
X329071Y883879D02*
X329071Y883879D01*
X329103Y884083D01*
X329665Y885810D01*
X330489Y887429D01*
X331557Y888898D01*
X332842Y890183D01*
X334311Y891251D01*
X335930Y892075D01*
X337657Y892637D01*
X337861Y892669D01*
X337861Y883879D01*
X329071Y883879D01*
G37*
%LPD*%
%LPC*%
G36*
X342859Y624881D02*
X342859Y624881D01*
X351649Y624881D01*
X351617Y624677D01*
X351055Y622950D01*
X350231Y621331D01*
X349163Y619862D01*
X347878Y618577D01*
X346409Y617509D01*
X344790Y616685D01*
X343063Y616123D01*
X342859Y616091D01*
X342859Y624881D01*
G37*
%LPD*%
%LPC*%
G36*
X520659Y624881D02*
X520659Y624881D01*
X529449Y624881D01*
X529417Y624677D01*
X528855Y622950D01*
X528031Y621331D01*
X526963Y619862D01*
X525678Y618577D01*
X524209Y617509D01*
X522590Y616685D01*
X520863Y616123D01*
X520659Y616091D01*
X520659Y624881D01*
G37*
%LPD*%
%LPC*%
G36*
X506871Y629879D02*
X506871Y629879D01*
X506903Y630083D01*
X507465Y631810D01*
X508289Y633429D01*
X509357Y634898D01*
X510642Y636183D01*
X512111Y637251D01*
X513730Y638075D01*
X515457Y638637D01*
X515661Y638669D01*
X515661Y629879D01*
X506871Y629879D01*
G37*
%LPD*%
%LPC*%
G36*
X329071Y629879D02*
X329071Y629879D01*
X329103Y630083D01*
X329665Y631810D01*
X330489Y633429D01*
X331557Y634898D01*
X332842Y636183D01*
X334311Y637251D01*
X335930Y638075D01*
X337657Y638637D01*
X337861Y638669D01*
X337861Y629879D01*
X329071Y629879D01*
G37*
%LPD*%
%LPC*%
G36*
X329071Y756879D02*
X329071Y756879D01*
X329103Y757083D01*
X329665Y758810D01*
X330489Y760429D01*
X331557Y761898D01*
X332842Y763183D01*
X334311Y764251D01*
X335930Y765075D01*
X337657Y765637D01*
X337861Y765669D01*
X337861Y756879D01*
X329071Y756879D01*
G37*
%LPD*%
%LPC*%
G36*
X342859Y751881D02*
X342859Y751881D01*
X351649Y751881D01*
X351617Y751677D01*
X351055Y749950D01*
X350231Y748331D01*
X349163Y746862D01*
X347878Y745577D01*
X346409Y744509D01*
X344790Y743685D01*
X343063Y743123D01*
X342859Y743091D01*
X342859Y751881D01*
G37*
%LPD*%
%LPC*%
G36*
X506871Y756879D02*
X506871Y756879D01*
X506903Y757083D01*
X507465Y758810D01*
X508289Y760429D01*
X509357Y761898D01*
X510642Y763183D01*
X512111Y764251D01*
X513730Y765075D01*
X515457Y765637D01*
X515661Y765669D01*
X515661Y756879D01*
X506871Y756879D01*
G37*
%LPD*%
%LPC*%
G36*
X520659Y751881D02*
X520659Y751881D01*
X529449Y751881D01*
X529417Y751677D01*
X528855Y749950D01*
X528031Y748331D01*
X526963Y746862D01*
X525678Y745577D01*
X524209Y744509D01*
X522590Y743685D01*
X520863Y743123D01*
X520659Y743091D01*
X520659Y751881D01*
G37*
%LPD*%
%LPC*%
G36*
X515457Y743123D02*
X515457Y743123D01*
X513730Y743685D01*
X512111Y744509D01*
X510642Y745577D01*
X509357Y746862D01*
X508289Y748331D01*
X507465Y749950D01*
X506903Y751677D01*
X506871Y751881D01*
X515661Y751881D01*
X515661Y743091D01*
X515457Y743123D01*
G37*
%LPD*%
%LPC*%
G36*
X337657Y743123D02*
X337657Y743123D01*
X335930Y743685D01*
X334311Y744509D01*
X332842Y745577D01*
X331557Y746862D01*
X330489Y748331D01*
X329665Y749950D01*
X329103Y751677D01*
X329071Y751881D01*
X337861Y751881D01*
X337861Y743091D01*
X337657Y743123D01*
G37*
%LPD*%
%LPC*%
G36*
X337657Y616123D02*
X337657Y616123D01*
X335930Y616685D01*
X334311Y617509D01*
X332842Y618577D01*
X331557Y619862D01*
X330489Y621331D01*
X329665Y622950D01*
X329103Y624677D01*
X329071Y624881D01*
X337861Y624881D01*
X337861Y616091D01*
X337657Y616123D01*
G37*
%LPD*%
%LPC*%
G36*
X515457Y870123D02*
X515457Y870123D01*
X513730Y870685D01*
X512111Y871509D01*
X510642Y872577D01*
X509357Y873862D01*
X508289Y875331D01*
X507465Y876950D01*
X506903Y878677D01*
X506871Y878881D01*
X515661Y878881D01*
X515661Y870091D01*
X515457Y870123D01*
G37*
%LPD*%
%LPC*%
G36*
X337657Y870123D02*
X337657Y870123D01*
X335930Y870685D01*
X334311Y871509D01*
X332842Y872577D01*
X331557Y873862D01*
X330489Y875331D01*
X329665Y876950D01*
X329103Y878677D01*
X329071Y878881D01*
X337861Y878881D01*
X337861Y870091D01*
X337657Y870123D01*
G37*
%LPD*%
%LPC*%
G36*
X337657Y489123D02*
X337657Y489123D01*
X335930Y489685D01*
X334311Y490509D01*
X332842Y491577D01*
X331557Y492862D01*
X330489Y494331D01*
X329665Y495950D01*
X329103Y497677D01*
X329071Y497881D01*
X337861Y497881D01*
X337861Y489091D01*
X337657Y489123D01*
G37*
%LPD*%
%LPC*%
G36*
X515457Y489123D02*
X515457Y489123D01*
X513730Y489685D01*
X512111Y490509D01*
X510642Y491577D01*
X509357Y492862D01*
X508289Y494331D01*
X507465Y495950D01*
X506903Y497677D01*
X506871Y497881D01*
X515661Y497881D01*
X515661Y489091D01*
X515457Y489123D01*
G37*
%LPD*%
%LPC*%
G36*
X515457Y616123D02*
X515457Y616123D01*
X513730Y616685D01*
X512111Y617509D01*
X510642Y618577D01*
X509357Y619862D01*
X508289Y621331D01*
X507465Y622950D01*
X506903Y624677D01*
X506871Y624881D01*
X515661Y624881D01*
X515661Y616091D01*
X515457Y616123D01*
G37*
%LPD*%
%LPC*%
G36*
X456691Y134111D02*
X456691Y134111D01*
X456691Y141936D01*
X458742Y141936D01*
X464516Y136162D01*
X464516Y134111D01*
X456691Y134111D01*
G37*
%LPD*%
%LPC*%
G36*
X444804Y134111D02*
X444804Y134111D01*
X444804Y136162D01*
X450578Y141936D01*
X452629Y141936D01*
X452629Y134111D01*
X444804Y134111D01*
G37*
%LPD*%
%LPC*%
G36*
X456691Y122224D02*
X456691Y122224D01*
X456691Y130049D01*
X464516Y130049D01*
X464516Y127998D01*
X458742Y122224D01*
X456691Y122224D01*
G37*
%LPD*%
%LPC*%
G36*
X450578Y122224D02*
X450578Y122224D01*
X444804Y127998D01*
X444804Y130049D01*
X452629Y130049D01*
X452629Y122224D01*
X450578Y122224D01*
G37*
%LPD*%
D10*
X43180Y243840D03*
X43180Y218440D03*
D11*
X454660Y132080D03*
X454660Y157480D03*
X43180Y281940D03*
X43180Y307340D03*
D12*
X340360Y932180D03*
X340360Y906780D03*
X340360Y779780D03*
X340360Y754380D03*
X340360Y881380D03*
X340360Y855980D03*
X340360Y805180D03*
X340360Y830580D03*
X340360Y728980D03*
X340360Y703580D03*
X340360Y678180D03*
X340360Y652780D03*
X340360Y627380D03*
X340360Y601980D03*
X340360Y576580D03*
X340360Y551180D03*
X340360Y525780D03*
X340360Y500380D03*
X340360Y474980D03*
X340360Y449580D03*
X518160Y449580D03*
X518160Y474980D03*
X518160Y500380D03*
X518160Y525780D03*
X518160Y551180D03*
X518160Y576580D03*
X518160Y601980D03*
X518160Y627380D03*
X518160Y652780D03*
X518160Y678180D03*
X518160Y703580D03*
X518160Y728980D03*
X518160Y754380D03*
X518160Y779780D03*
X518160Y805180D03*
X518160Y830580D03*
X518160Y855980D03*
X518160Y881380D03*
X518160Y906780D03*
X518160Y932180D03*
X403860Y451880D03*
X429260Y451880D03*
X454660Y451880D03*
D13*
X218440Y462280D03*
D14*
X254000Y462280D01*
X345440Y370840D01*
D13*
X609600Y370840D03*
D14*
X345440Y370840D01*
D15*
X698500Y63500D03*
X63500Y63500D03*
X63500Y889000D03*
X698500Y889000D03*
D13*
X716280Y81280D03*
X711200Y96520D03*
D14*
X716280Y91440D01*
X716280Y81280D01*
D13*
X574040Y589280D03*
D14*
X574040Y609600D01*
X568960Y614680D01*
X698500Y779780D02*
X698500Y889000D01*
D13*
X568960Y614680D03*
D14*
X568960Y650240D02*
X655320Y736600D01*
X698500Y779780D01*
X568960Y650240D02*
X568960Y614680D01*
D13*
X289560Y741680D03*
D14*
X289560Y645160D01*
D13*
X289560Y645160D03*
X269240Y787400D03*
D14*
X264160Y792480D01*
X264160Y858520D01*
D13*
X264160Y858520D03*
D14*
X619760Y736600D02*
X655320Y736600D01*
X619760Y736600D02*
X604520Y751840D01*
D13*
X604520Y751840D03*
D14*
X574040Y609600D02*
X635000Y609600D01*
X680720Y563880D01*
X680720Y528320D01*
D13*
X680720Y528320D03*
X477520Y218440D03*
X477520Y177800D03*
D14*
X477520Y218440D01*
D13*
X502920Y294640D03*
D14*
X508000Y299720D01*
X584200Y299720D01*
X640080Y355600D01*
X640080Y386080D01*
D13*
X640080Y386080D03*
X121920Y386080D03*
D14*
X121920Y411480D01*
X147320Y436880D01*
X182880Y436880D01*
X198120Y452120D01*
X198120Y487680D01*
D13*
X198120Y487680D03*
X248920Y731520D03*
D14*
X304800Y787400D01*
X331301Y787400D02*
X335475Y791574D01*
X585106Y791574D01*
X619760Y756920D01*
X660400Y756920D01*
X680720Y777240D01*
X680720Y863600D01*
X619760Y924560D01*
X331301Y787400D02*
X304800Y787400D01*
D13*
X619760Y924560D03*
X279400Y833120D03*
D14*
X326221Y833120D01*
X335475Y842374D01*
X590186Y842374D01*
X660400Y772160D01*
D13*
X660400Y772160D03*
X157480Y568960D03*
D14*
X167640Y568960D02*
X350520Y386080D01*
X167640Y568960D02*
X157480Y568960D01*
X350520Y386080D02*
X574040Y386080D01*
X690880Y502920D01*
X690880Y706120D01*
D13*
X690880Y706120D03*
X167640Y294640D03*
D14*
X30480Y294640D01*
D13*
X30480Y294640D03*
X640080Y121920D03*
D14*
X640080Y106680D01*
X619760Y86360D01*
X604520Y86360D01*
D13*
X604520Y86360D03*
X685800Y121920D03*
D14*
X685800Y167640D01*
X711200Y193040D01*
X711200Y243840D01*
D13*
X711200Y243840D03*
X675640Y91440D03*
D14*
X675640Y147320D01*
X665480Y157480D01*
X635000Y157480D01*
D13*
X635000Y157480D03*
X558800Y228600D03*
X543560Y106680D03*
D14*
X558800Y121920D02*
X558800Y228600D01*
X558800Y121920D02*
X543560Y106680D01*
M02*
