G04 EAGLE Gerber RS-274X export*
G75*
%MOMM*%
%FSLAX34Y34*%
%LPD*%
%INSoldermask Bottom*%
%IPPOS*%
%AMOC8*
5,1,8,0,0,1.08239X$1,22.5*%
G01*
%ADD10P,1.803519X8X292.500000*%
%ADD11P,1.803519X8X112.500000*%
%ADD12C,2.003200*%
%ADD13C,1.703200*%
%ADD14C,0.705600*%
%ADD15C,3.530600*%


D10*
X43180Y243840D03*
X43180Y218440D03*
D11*
X454660Y132080D03*
X454660Y157480D03*
X43180Y281940D03*
X43180Y307340D03*
D12*
X340360Y932180D03*
X340360Y906780D03*
X340360Y779780D03*
X340360Y754380D03*
X340360Y881380D03*
X340360Y855980D03*
X340360Y805180D03*
X340360Y830580D03*
X340360Y728980D03*
X340360Y703580D03*
X340360Y678180D03*
X340360Y652780D03*
X340360Y627380D03*
X340360Y601980D03*
X340360Y576580D03*
X340360Y551180D03*
X340360Y525780D03*
X340360Y500380D03*
X340360Y474980D03*
X340360Y449580D03*
X518160Y449580D03*
X518160Y474980D03*
X518160Y500380D03*
X518160Y525780D03*
X518160Y551180D03*
X518160Y576580D03*
X518160Y601980D03*
X518160Y627380D03*
X518160Y652780D03*
X518160Y678180D03*
X518160Y703580D03*
X518160Y728980D03*
X518160Y754380D03*
X518160Y779780D03*
X518160Y805180D03*
X518160Y830580D03*
X518160Y855980D03*
X518160Y881380D03*
X518160Y906780D03*
X518160Y932180D03*
X402010Y930880D03*
X456510Y930880D03*
D13*
X405010Y900580D03*
X453510Y900580D03*
D12*
X403860Y451880D03*
X429260Y451880D03*
X454660Y451880D03*
D14*
X218440Y462280D03*
X609600Y370840D03*
D15*
X698500Y63500D03*
X63500Y63500D03*
X63500Y889000D03*
X698500Y889000D03*
D14*
X716280Y81280D03*
X711200Y96520D03*
X574040Y589280D03*
X568960Y614680D03*
X289560Y741680D03*
X289560Y645160D03*
X269240Y787400D03*
X264160Y858520D03*
X604520Y751840D03*
X680720Y528320D03*
X477520Y218440D03*
X477520Y177800D03*
X502920Y294640D03*
X640080Y386080D03*
X121920Y386080D03*
X198120Y487680D03*
X248920Y731520D03*
X619760Y924560D03*
X279400Y833120D03*
X660400Y772160D03*
X157480Y568960D03*
X690880Y706120D03*
X167640Y294640D03*
X30480Y294640D03*
X640080Y121920D03*
X604520Y86360D03*
X685800Y121920D03*
X711200Y243840D03*
X675640Y91440D03*
X635000Y157480D03*
X558800Y228600D03*
X543560Y106680D03*
M02*
